<!DOCTYPE svg PUBLIC "-//W3C//DTD SVG 1.1//EN" "http://www.w3.org/Graphics/SVG/1.1/DTD/svg11.dtd">
<!-- Uploaded to: SVG Repo, www.svgrepo.com, Transformed by: SVG Repo Mixer Tools -->
<svg fill="#000000" height="800px" width="800px" version="1.1" id="Capa_1" xmlns="http://www.w3.org/2000/svg" xmlns:xlink="http://www.w3.org/1999/xlink" viewBox="0 0 612 612" xml:space="preserve" transform="rotate(270)matrix(1, 0, 0, -1, 0, 0)">
<g id="SVGRepo_bgCarrier" stroke-width="0"/>
<g id="SVGRepo_tracerCarrier" stroke-linecap="round" stroke-linejoin="round"/>
<g id="SVGRepo_iconCarrier"> <g> <g id="Antenna_2"> <path d="M533.856,172.432c-3.008,5.472-6.015,10.942-9.023,16.414c27.448,15.089,37.467,49.572,22.378,77.02 c5.471,3.008,10.942,6.015,16.414,9.024C583.697,238.377,570.369,192.504,533.856,172.432z"/> <path d="M552.656,138.236c-3.008,5.472-6.015,10.942-9.023,16.414c46.333,25.472,63.246,83.682,37.774,130.015 c5.472,3.008,10.942,6.015,16.414,9.024C628.275,238.29,608.054,168.691,552.656,138.236z"/> <path d="M494.963,212.654c-12.671,1.248-22.577,11.481-23.411,24.185c-35.913,8.066-71.826,16.132-107.739,24.198 c-13.133-45.113-32.758-92.498-58.516-132.198c-13.333-20.549-27.805-39.173-46.845-55.049 c-17.151-14.301-41.648-28.334-66.303-21.728C53.896,89.108-28.15,231.215,8.895,369.47s179.152,220.3,317.407,183.254 c24.659-6.607,38.857-31.015,46.559-51.978c8.549-23.266,11.77-46.629,13.042-71.089c2.456-47.259-4.24-98.107-15.424-143.741 c35.135-10.971,70.269-21.942,105.404-32.914c7.074,10.585,20.771,14.494,32.367,9.24c11.597-5.256,17.686-18.131,14.391-30.429 C519.345,219.514,507.634,211.408,494.963,212.654z M361.76,420.895c-0.169,15.55-1.254,30.857-4.098,46.194 c-2.214,11.944-5.261,23.311-10.683,34.317c-6.652,13.5-17.2,26.458-34.273,27.248c-7.234,0.335-13.447-1.395-19.899-4.345 c-8.615-3.941-15.773-9.367-22.684-15.68c-19.34-17.667-35.004-41.82-47.275-64.382c-20.046-36.86-35.733-79.269-46.548-119.631 c-10.812-40.352-18.43-84.908-19.503-126.841c-0.657-25.683,0.829-54.437,8.743-79.414c2.828-8.924,6.314-17.207,11.804-24.93 c4.113-5.784,8.628-10.389,15.06-13.719c15.179-7.856,30.794-1.911,43.306,6.453c10.2,6.819,18.521,15.14,26.412,24.376 c10.13,11.859,18.725,24.574,26.647,37.956c21.293,35.971,37.985,78.355,49.624,118.251 c-28.132,6.319-56.263,12.636-84.395,18.954c-8.322,11.586-3.954,27.888,9.046,33.761c27.521-8.594,55.044-17.188,82.565-25.781 C355.478,334.05,362.215,379.098,361.76,420.895z"/> </g> </g> </g>
</svg>