<svg width="213" height="47" viewBox="0 0 213 47" fill="none" xmlns="http://www.w3.org/2000/svg">
<path d="M212.707 8.70711C213.098 8.31658 213.098 7.68342 212.707 7.29289L206.343 0.928932C205.953 0.538408 205.319 0.538408 204.929 0.928932C204.538 1.31946 204.538 1.95262 204.929 2.34315L210.586 8L204.929 13.6569C204.538 14.0474 204.538 14.6805 204.929 15.0711C205.319 15.4616 205.953 15.4616 206.343 15.0711L212.707 8.70711ZM112.259 9H212V7H112.259V9ZM101.259 18V36H103.259V18H101.259ZM92.2588 45H0V47H92.2588V45ZM101.259 36C101.259 40.9706 97.2294 45 92.2588 45V47C98.334 47 103.259 42.0751 103.259 36H101.259ZM112.259 7C106.184 7 101.259 11.9249 101.259 18H103.259C103.259 13.0294 107.288 9 112.259 9V7Z" fill="#0B0105"/>
</svg>
