<!DOCTYPE svg PUBLIC "-//W3C//DTD SVG 1.1//EN" "http://www.w3.org/Graphics/SVG/1.1/DTD/svg11.dtd">
<!-- Uploaded to: SVG Repo, www.svgrepo.com, Transformed by: SVG Repo Mixer Tools -->
<svg fill="#ffffff" width="800px" height="800px" viewBox="-1.92 -1.92 27.84 27.84" xmlns="http://www.w3.org/2000/svg" transform="rotate(90)" stroke="#ffffff" stroke-width="0.00024000000000000003">
<g id="SVGRepo_bgCarrier" stroke-width="0"/>
<g id="SVGRepo_tracerCarrier" stroke-linecap="round" stroke-linejoin="round"/>
<g id="SVGRepo_iconCarrier">
<path d="M12,5a1,1,0,0,0-1,1V18a1,1,0,0,0,2,0V6A1,1,0,0,0,12,5Zm-1.29,6.29-2.5-2.5a1,1,0,1,0-1.42,1.42l.8.79H3a1,1,0,0,0,0,2H7.59l-.8.79a1,1,0,0,0,0,1.42,1,1,0,0,0,1.42,0l2.5-2.5a1,1,0,0,0,.21-.33.94.94,0,0,0,0-.76A1,1,0,0,0,10.71,11.29ZM21,11H16.41l.8-.79a1,1,0,0,0-1.42-1.42l-2.5,2.5a1,1,0,0,0,0,1.42l2.5,2.5a1,1,0,0,0,1.42,0,1,1,0,0,0,0-1.42l-.8-.79H21a1,1,0,0,0,0-2Z"/>
</g>
</svg>