<svg xmlns="http://www.w3.org/2000/svg" xmlns:xlink="http://www.w3.org/1999/xlink" width="1080" zoomAndPan="magnify" viewBox="0 0 810 809.999993" height="1080" preserveAspectRatio="xMidYMid meet" version="1.0"><defs><clipPath id="a3e73612b7"><path d="M 282 0 L 525 0 L 525 20 L 282 20 Z M 282 0 " clip-rule="nonzero"/></clipPath><clipPath id="bcda1eafb3"><path d="M 525.480469 -0.457031 L 528.527344 809.535156 L 284.777344 810.453125 L 281.730469 0.457031 Z M 525.480469 -0.457031 " clip-rule="nonzero"/></clipPath><clipPath id="510a6519de"><path d="M 525.480469 -0.457031 L 528.527344 809.535156 L 284.777344 810.453125 L 281.730469 0.457031 Z M 525.480469 -0.457031 " clip-rule="nonzero"/></clipPath><clipPath id="c967d6afec"><path d="M 282 30 L 525 30 L 525 40 L 282 40 Z M 282 30 " clip-rule="nonzero"/></clipPath><clipPath id="b5f59e143a"><path d="M 525.480469 -0.457031 L 528.527344 809.535156 L 284.777344 810.453125 L 281.730469 0.457031 Z M 525.480469 -0.457031 " clip-rule="nonzero"/></clipPath><clipPath id="4e83117895"><path d="M 525.480469 -0.457031 L 528.527344 809.535156 L 284.777344 810.453125 L 281.730469 0.457031 Z M 525.480469 -0.457031 " clip-rule="nonzero"/></clipPath><clipPath id="5638fe046c"><path d="M 282 61 L 526 61 L 526 92 L 282 92 Z M 282 61 " clip-rule="nonzero"/></clipPath><clipPath id="759d97bcf9"><path d="M 525.480469 -0.457031 L 528.527344 809.535156 L 284.777344 810.453125 L 281.730469 0.457031 Z M 525.480469 -0.457031 " clip-rule="nonzero"/></clipPath><clipPath id="e73dd49f9f"><path d="M 525.480469 -0.457031 L 528.527344 809.535156 L 284.777344 810.453125 L 281.730469 0.457031 Z M 525.480469 -0.457031 " clip-rule="nonzero"/></clipPath><clipPath id="fa58c3080e"><path d="M 283 112 L 526 112 L 526 153 L 283 153 Z M 283 112 " clip-rule="nonzero"/></clipPath><clipPath id="6c11c035a4"><path d="M 525.480469 -0.457031 L 528.527344 809.535156 L 284.777344 810.453125 L 281.730469 0.457031 Z M 525.480469 -0.457031 " clip-rule="nonzero"/></clipPath><clipPath id="802ee8f21d"><path d="M 525.480469 -0.457031 L 528.527344 809.535156 L 284.777344 810.453125 L 281.730469 0.457031 Z M 525.480469 -0.457031 " clip-rule="nonzero"/></clipPath><clipPath id="12e8edc87f"><path d="M 283 164 L 526 164 L 526 174 L 283 174 Z M 283 164 " clip-rule="nonzero"/></clipPath><clipPath id="e0f8832330"><path d="M 525.480469 -0.457031 L 528.527344 809.535156 L 284.777344 810.453125 L 281.730469 0.457031 Z M 525.480469 -0.457031 " clip-rule="nonzero"/></clipPath><clipPath id="d4d0aa6afb"><path d="M 525.480469 -0.457031 L 528.527344 809.535156 L 284.777344 810.453125 L 281.730469 0.457031 Z M 525.480469 -0.457031 " clip-rule="nonzero"/></clipPath><clipPath id="ceb5b0ee0c"><path d="M 283 184 L 526 184 L 526 215 L 283 215 Z M 283 184 " clip-rule="nonzero"/></clipPath><clipPath id="fb47a463d5"><path d="M 525.480469 -0.457031 L 528.527344 809.535156 L 284.777344 810.453125 L 281.730469 0.457031 Z M 525.480469 -0.457031 " clip-rule="nonzero"/></clipPath><clipPath id="a237ed10fb"><path d="M 525.480469 -0.457031 L 528.527344 809.535156 L 284.777344 810.453125 L 281.730469 0.457031 Z M 525.480469 -0.457031 " clip-rule="nonzero"/></clipPath><clipPath id="7f0f86adea"><path d="M 283 226 L 526 226 L 526 236 L 283 236 Z M 283 226 " clip-rule="nonzero"/></clipPath><clipPath id="db82025b2d"><path d="M 525.480469 -0.457031 L 528.527344 809.535156 L 284.777344 810.453125 L 281.730469 0.457031 Z M 525.480469 -0.457031 " clip-rule="nonzero"/></clipPath><clipPath id="84ad8ec90d"><path d="M 525.480469 -0.457031 L 528.527344 809.535156 L 284.777344 810.453125 L 281.730469 0.457031 Z M 525.480469 -0.457031 " clip-rule="nonzero"/></clipPath><clipPath id="5d588052c9"><path d="M 283 245 L 526 245 L 526 267 L 283 267 Z M 283 245 " clip-rule="nonzero"/></clipPath><clipPath id="644361c231"><path d="M 525.480469 -0.457031 L 528.527344 809.535156 L 284.777344 810.453125 L 281.730469 0.457031 Z M 525.480469 -0.457031 " clip-rule="nonzero"/></clipPath><clipPath id="0e2f3683eb"><path d="M 525.480469 -0.457031 L 528.527344 809.535156 L 284.777344 810.453125 L 281.730469 0.457031 Z M 525.480469 -0.457031 " clip-rule="nonzero"/></clipPath><clipPath id="4442aad0bb"><path d="M 283 287 L 526 287 L 526 317 L 283 317 Z M 283 287 " clip-rule="nonzero"/></clipPath><clipPath id="afe2bf61ac"><path d="M 525.480469 -0.457031 L 528.527344 809.535156 L 284.777344 810.453125 L 281.730469 0.457031 Z M 525.480469 -0.457031 " clip-rule="nonzero"/></clipPath><clipPath id="672887bf36"><path d="M 525.480469 -0.457031 L 528.527344 809.535156 L 284.777344 810.453125 L 281.730469 0.457031 Z M 525.480469 -0.457031 " clip-rule="nonzero"/></clipPath><clipPath id="83b3fcce16"><path d="M 283 338 L 527 338 L 527 348 L 283 348 Z M 283 338 " clip-rule="nonzero"/></clipPath><clipPath id="6219c6b70c"><path d="M 525.480469 -0.457031 L 528.527344 809.535156 L 284.777344 810.453125 L 281.730469 0.457031 Z M 525.480469 -0.457031 " clip-rule="nonzero"/></clipPath><clipPath id="1a045773da"><path d="M 525.480469 -0.457031 L 528.527344 809.535156 L 284.777344 810.453125 L 281.730469 0.457031 Z M 525.480469 -0.457031 " clip-rule="nonzero"/></clipPath><clipPath id="e9d7fbd8e3"><path d="M 284 380 L 527 380 L 527 390 L 284 390 Z M 284 380 " clip-rule="nonzero"/></clipPath><clipPath id="0e6e7285cc"><path d="M 525.480469 -0.457031 L 528.527344 809.535156 L 284.777344 810.453125 L 281.730469 0.457031 Z M 525.480469 -0.457031 " clip-rule="nonzero"/></clipPath><clipPath id="61e4a29837"><path d="M 525.480469 -0.457031 L 528.527344 809.535156 L 284.777344 810.453125 L 281.730469 0.457031 Z M 525.480469 -0.457031 " clip-rule="nonzero"/></clipPath><clipPath id="44e8488714"><path d="M 284 400 L 527 400 L 527 421 L 284 421 Z M 284 400 " clip-rule="nonzero"/></clipPath><clipPath id="d3281c22c6"><path d="M 525.480469 -0.457031 L 528.527344 809.535156 L 284.777344 810.453125 L 281.730469 0.457031 Z M 525.480469 -0.457031 " clip-rule="nonzero"/></clipPath><clipPath id="7c197e7a50"><path d="M 525.480469 -0.457031 L 528.527344 809.535156 L 284.777344 810.453125 L 281.730469 0.457031 Z M 525.480469 -0.457031 " clip-rule="nonzero"/></clipPath><clipPath id="8fb968f684"><path d="M 284 452 L 527 452 L 527 482 L 284 482 Z M 284 452 " clip-rule="nonzero"/></clipPath><clipPath id="42db9d8657"><path d="M 525.480469 -0.457031 L 528.527344 809.535156 L 284.777344 810.453125 L 281.730469 0.457031 Z M 525.480469 -0.457031 " clip-rule="nonzero"/></clipPath><clipPath id="1566f20e8c"><path d="M 525.480469 -0.457031 L 528.527344 809.535156 L 284.777344 810.453125 L 281.730469 0.457031 Z M 525.480469 -0.457031 " clip-rule="nonzero"/></clipPath><clipPath id="b4ceaa4b86"><path d="M 284 513 L 527 513 L 527 523 L 284 523 Z M 284 513 " clip-rule="nonzero"/></clipPath><clipPath id="2381b69f16"><path d="M 525.480469 -0.457031 L 528.527344 809.535156 L 284.777344 810.453125 L 281.730469 0.457031 Z M 525.480469 -0.457031 " clip-rule="nonzero"/></clipPath><clipPath id="4b8fe0252d"><path d="M 525.480469 -0.457031 L 528.527344 809.535156 L 284.777344 810.453125 L 281.730469 0.457031 Z M 525.480469 -0.457031 " clip-rule="nonzero"/></clipPath><clipPath id="153b601de2"><path d="M 284 534 L 527 534 L 527 554 L 284 554 Z M 284 534 " clip-rule="nonzero"/></clipPath><clipPath id="01f0f38c7e"><path d="M 525.480469 -0.457031 L 528.527344 809.535156 L 284.777344 810.453125 L 281.730469 0.457031 Z M 525.480469 -0.457031 " clip-rule="nonzero"/></clipPath><clipPath id="f44a153e27"><path d="M 525.480469 -0.457031 L 528.527344 809.535156 L 284.777344 810.453125 L 281.730469 0.457031 Z M 525.480469 -0.457031 " clip-rule="nonzero"/></clipPath><clipPath id="6872ef0569"><path d="M 284 565 L 527 565 L 527 575 L 284 575 Z M 284 565 " clip-rule="nonzero"/></clipPath><clipPath id="36a133c4b0"><path d="M 525.480469 -0.457031 L 528.527344 809.535156 L 284.777344 810.453125 L 281.730469 0.457031 Z M 525.480469 -0.457031 " clip-rule="nonzero"/></clipPath><clipPath id="36948efe57"><path d="M 525.480469 -0.457031 L 528.527344 809.535156 L 284.777344 810.453125 L 281.730469 0.457031 Z M 525.480469 -0.457031 " clip-rule="nonzero"/></clipPath><clipPath id="0579b6ca6d"><path d="M 284 585 L 527 585 L 527 606 L 284 606 Z M 284 585 " clip-rule="nonzero"/></clipPath><clipPath id="6f55b62d80"><path d="M 525.480469 -0.457031 L 528.527344 809.535156 L 284.777344 810.453125 L 281.730469 0.457031 Z M 525.480469 -0.457031 " clip-rule="nonzero"/></clipPath><clipPath id="cf0c095ff3"><path d="M 525.480469 -0.457031 L 528.527344 809.535156 L 284.777344 810.453125 L 281.730469 0.457031 Z M 525.480469 -0.457031 " clip-rule="nonzero"/></clipPath><clipPath id="7897a4981d"><path d="M 285 616 L 528 616 L 528 646 L 285 646 Z M 285 616 " clip-rule="nonzero"/></clipPath><clipPath id="70e9dfc14f"><path d="M 525.480469 -0.457031 L 528.527344 809.535156 L 284.777344 810.453125 L 281.730469 0.457031 Z M 525.480469 -0.457031 " clip-rule="nonzero"/></clipPath><clipPath id="2e19c48ffb"><path d="M 525.480469 -0.457031 L 528.527344 809.535156 L 284.777344 810.453125 L 281.730469 0.457031 Z M 525.480469 -0.457031 " clip-rule="nonzero"/></clipPath><clipPath id="8b05649a9c"><path d="M 285 677 L 528 677 L 528 699 L 285 699 Z M 285 677 " clip-rule="nonzero"/></clipPath><clipPath id="aec04736c4"><path d="M 525.480469 -0.457031 L 528.527344 809.535156 L 284.777344 810.453125 L 281.730469 0.457031 Z M 525.480469 -0.457031 " clip-rule="nonzero"/></clipPath><clipPath id="5135a55774"><path d="M 525.480469 -0.457031 L 528.527344 809.535156 L 284.777344 810.453125 L 281.730469 0.457031 Z M 525.480469 -0.457031 " clip-rule="nonzero"/></clipPath><clipPath id="5cf4ea71c0"><path d="M 285 729 L 528 729 L 528 761 L 285 761 Z M 285 729 " clip-rule="nonzero"/></clipPath><clipPath id="0010a088d2"><path d="M 525.480469 -0.457031 L 528.527344 809.535156 L 284.777344 810.453125 L 281.730469 0.457031 Z M 525.480469 -0.457031 " clip-rule="nonzero"/></clipPath><clipPath id="e99606b161"><path d="M 525.480469 -0.457031 L 528.527344 809.535156 L 284.777344 810.453125 L 281.730469 0.457031 Z M 525.480469 -0.457031 " clip-rule="nonzero"/></clipPath><clipPath id="3b54ca69d8"><path d="M 285 770 L 528 770 L 528 780 L 285 780 Z M 285 770 " clip-rule="nonzero"/></clipPath><clipPath id="1ee518d2f3"><path d="M 525.480469 -0.457031 L 528.527344 809.535156 L 284.777344 810.453125 L 281.730469 0.457031 Z M 525.480469 -0.457031 " clip-rule="nonzero"/></clipPath><clipPath id="7396b018c2"><path d="M 525.480469 -0.457031 L 528.527344 809.535156 L 284.777344 810.453125 L 281.730469 0.457031 Z M 525.480469 -0.457031 " clip-rule="nonzero"/></clipPath><clipPath id="097b417589"><path d="M 285 791 L 528 791 L 528 810 L 285 810 Z M 285 791 " clip-rule="nonzero"/></clipPath><clipPath id="910c2de2db"><path d="M 525.480469 -0.457031 L 528.527344 809.535156 L 284.777344 810.453125 L 281.730469 0.457031 Z M 525.480469 -0.457031 " clip-rule="nonzero"/></clipPath><clipPath id="c39d848e56"><path d="M 525.480469 -0.457031 L 528.527344 809.535156 L 284.777344 810.453125 L 281.730469 0.457031 Z M 525.480469 -0.457031 " clip-rule="nonzero"/></clipPath></defs><g clip-path="url(#a3e73612b7)"><g clip-path="url(#bcda1eafb3)"><g clip-path="url(#510a6519de)"><path fill="#ffffff" d="M 524.707031 -0.25 C 524.730469 6.042969 524.757812 12.328125 524.78125 18.617188 C 444.132812 18.917969 363.457031 19.222656 282.796875 19.527344 C 282.773438 13.175781 282.75 6.816406 282.722656 0.464844 C 363.285156 0.160156 443.855469 -0.140625 524.417969 -0.445312 C 524.554688 -0.464844 524.691406 -0.480469 524.707031 -0.25 Z M 524.707031 -0.25 " fill-opacity="1" fill-rule="evenodd"/></g></g></g><g clip-path="url(#c967d6afec)"><g clip-path="url(#b5f59e143a)"><g clip-path="url(#4e83117895)"><path fill="#ffffff" d="M 524.824219 30.53125 C 524.785156 33.179688 524.980469 36.351562 524.765625 38.675781 C 444.207031 38.976562 363.613281 39.28125 283.070312 39.582031 C 282.679688 37.652344 282.847656 33.5 282.941406 31.242188 C 363.476562 30.9375 444 30.636719 524.535156 30.332031 C 524.671875 30.316406 524.808594 30.296875 524.824219 30.53125 Z M 524.824219 30.53125 " fill-opacity="1" fill-rule="evenodd"/></g></g></g><g clip-path="url(#5638fe046c)"><g clip-path="url(#759d97bcf9)"><g clip-path="url(#e73dd49f9f)"><path fill="#ffffff" d="M 524.941406 61.507812 C 524.976562 71.039062 525.011719 80.570312 525.046875 90.105469 C 444.402344 90.40625 363.726562 90.710938 283.066406 91.015625 C 283.027344 81.414062 282.992188 71.816406 282.957031 62.222656 C 363.519531 61.917969 444.085938 61.613281 524.652344 61.3125 C 524.785156 61.296875 524.925781 61.277344 524.941406 61.507812 Z M 524.941406 61.507812 " fill-opacity="1" fill-rule="evenodd"/></g></g></g><g clip-path="url(#fa58c3080e)"><g clip-path="url(#6c11c035a4)"><g clip-path="url(#802ee8f21d)"><path fill="#ffffff" d="M 525.132812 112.941406 C 525.183594 125.914062 525.230469 138.890625 525.28125 151.859375 C 444.632812 152.164062 363.957031 152.464844 283.296875 152.769531 C 283.25 139.730469 283.199219 126.691406 283.148438 113.652344 C 363.710938 113.351562 444.28125 113.046875 524.84375 112.746094 C 524.980469 112.726562 525.117188 112.710938 525.136719 112.941406 Z M 525.132812 112.941406 " fill-opacity="1" fill-rule="evenodd"/></g></g></g><g clip-path="url(#12e8edc87f)"><g clip-path="url(#e0f8832330)"><g clip-path="url(#d4d0aa6afb)"><path fill="#ffffff" d="M 525.328125 164.570312 C 525.289062 167.148438 525.484375 170.261719 525.269531 172.515625 C 444.726562 172.816406 364.203125 173.121094 283.671875 173.425781 C 283.574219 173.425781 283.476562 173.425781 283.375 173.425781 C 283.4375 170.773438 283.234375 167.601562 283.445312 165.285156 C 363.980469 164.980469 444.503906 164.679688 525.039062 164.375 C 525.175781 164.359375 525.3125 164.339844 525.328125 164.570312 Z M 525.328125 164.570312 " fill-opacity="1" fill-rule="evenodd"/></g></g></g><g clip-path="url(#ceb5b0ee0c)"><g clip-path="url(#fb47a463d5)"><g clip-path="url(#a237ed10fb)"><path fill="#ffffff" d="M 525.402344 184.429688 C 525.441406 194.226562 525.476562 204.023438 525.515625 213.816406 C 444.867188 214.121094 364.191406 214.425781 283.53125 214.726562 C 283.492188 204.867188 283.457031 195 283.417969 185.140625 C 363.980469 184.835938 444.550781 184.53125 525.113281 184.230469 C 525.25 184.214844 525.386719 184.195312 525.402344 184.429688 Z M 525.402344 184.429688 " fill-opacity="1" fill-rule="evenodd"/></g></g></g><g clip-path="url(#7f0f86adea)"><g clip-path="url(#db82025b2d)"><g clip-path="url(#84ad8ec90d)"><path fill="#ffffff" d="M 525.5625 226.328125 C 525.519531 228.910156 525.714844 232.019531 525.5 234.269531 C 444.960938 234.574219 364.4375 234.878906 283.902344 235.179688 C 283.808594 235.179688 283.710938 235.179688 283.609375 235.179688 C 283.671875 232.53125 283.464844 229.359375 283.679688 227.042969 C 364.214844 226.742188 444.734375 226.4375 525.273438 226.132812 C 525.40625 226.113281 525.542969 226.097656 525.5625 226.328125 Z M 525.5625 226.328125 " fill-opacity="1" fill-rule="evenodd"/></g></g></g><g clip-path="url(#5d588052c9)"><g clip-path="url(#644361c231)"><g clip-path="url(#0e2f3683eb)"><path fill="#ffffff" d="M 525.636719 246.191406 C 525.660156 252.542969 525.683594 258.894531 525.707031 265.25 C 445.058594 265.550781 364.382812 265.855469 283.722656 266.160156 C 283.699219 259.875 283.675781 253.582031 283.652344 247.292969 C 283.640625 247.0625 283.679688 246.941406 283.753906 246.898438 C 364.289062 246.597656 444.808594 246.292969 525.347656 245.992188 C 525.480469 245.96875 525.617188 245.953125 525.636719 246.191406 Z M 525.636719 246.191406 " fill-opacity="1" fill-rule="evenodd"/></g></g></g><g clip-path="url(#4442aad0bb)"><g clip-path="url(#afe2bf61ac)"><g clip-path="url(#672887bf36)"><path fill="#ffffff" d="M 525.792969 288.089844 C 525.828125 297.421875 525.863281 306.753906 525.898438 316.085938 C 445.25 316.386719 364.574219 316.691406 283.914062 316.996094 C 283.878906 307.730469 283.84375 298.460938 283.8125 289.195312 C 283.796875 288.964844 283.835938 288.839844 283.910156 288.792969 C 364.445312 288.492188 444.96875 288.1875 525.503906 287.882812 C 525.640625 287.871094 525.777344 287.855469 525.792969 288.089844 Z M 525.792969 288.089844 " fill-opacity="1" fill-rule="evenodd"/></g></g></g><g clip-path="url(#83b3fcce16)"><g clip-path="url(#6219c6b70c)"><g clip-path="url(#1a045773da)"><path fill="#ffffff" d="M 525.984375 338.917969 C 525.945312 341.570312 526.140625 344.746094 525.925781 347.0625 C 445.367188 347.367188 364.777344 347.671875 284.230469 347.972656 C 283.839844 346.046875 284.007812 341.890625 284.101562 339.632812 C 364.636719 339.332031 445.160156 339.027344 525.695312 338.722656 C 525.832031 338.707031 525.96875 338.691406 525.984375 338.917969 Z M 525.984375 338.917969 " fill-opacity="1" fill-rule="evenodd"/></g></g></g><g clip-path="url(#e9d7fbd8e3)"><g clip-path="url(#0e6e7285cc)"><g clip-path="url(#61e4a29837)"><path fill="#ffffff" d="M 526.140625 380.226562 C 526.152344 383.070312 526.160156 385.917969 526.171875 388.765625 C 445.609375 389.070312 365.046875 389.371094 284.484375 389.675781 C 284.390625 389.675781 284.292969 389.675781 284.1875 389.675781 C 284.179688 386.761719 284.167969 383.847656 284.15625 380.941406 C 364.71875 380.636719 445.285156 380.332031 525.851562 380.03125 C 525.988281 380.011719 526.125 379.996094 526.140625 380.226562 Z M 526.140625 380.226562 " fill-opacity="1" fill-rule="evenodd"/></g></g></g><g clip-path="url(#44e8488714)"><g clip-path="url(#d3281c22c6)"><g clip-path="url(#7c197e7a50)"><path fill="#ffffff" d="M 526.21875 400.679688 C 526.242188 407.03125 526.265625 413.386719 526.289062 419.738281 C 445.640625 420.042969 364.964844 420.34375 284.304688 420.648438 C 284.28125 414.367188 284.257812 408.078125 284.234375 401.789062 C 284.222656 401.558594 284.261719 401.433594 284.335938 401.390625 C 364.871094 401.085938 445.390625 400.785156 525.929688 400.480469 C 526.0625 400.464844 526.199219 400.449219 526.21875 400.679688 Z M 526.21875 400.679688 " fill-opacity="1" fill-rule="evenodd"/></g></g></g><g clip-path="url(#8fb968f684)"><g clip-path="url(#42db9d8657)"><g clip-path="url(#1566f20e8c)"><path fill="#ffffff" d="M 526.410156 452.308594 C 526.449219 461.839844 526.484375 471.371094 526.519531 480.90625 C 445.871094 481.210938 365.195312 481.511719 284.535156 481.816406 C 284.5 472.214844 284.464844 462.621094 284.425781 453.019531 C 364.988281 452.71875 445.558594 452.414062 526.121094 452.109375 C 526.257812 452.097656 526.394531 452.074219 526.410156 452.308594 Z M 526.410156 452.308594 " fill-opacity="1" fill-rule="evenodd"/></g></g></g><g clip-path="url(#b4ceaa4b86)"><g clip-path="url(#2381b69f16)"><g clip-path="url(#4b8fe0252d)"><path fill="#ffffff" d="M 526.644531 514.066406 C 526.601562 516.648438 526.796875 519.757812 526.582031 522.007812 C 446.042969 522.308594 365.519531 522.613281 284.984375 522.917969 C 284.890625 522.917969 284.792969 522.917969 284.691406 522.917969 C 284.753906 520.269531 284.550781 517.097656 284.761719 514.777344 C 365.296875 514.472656 445.820312 514.171875 526.355469 513.867188 C 526.488281 513.855469 526.625 513.835938 526.644531 514.066406 Z M 526.644531 514.066406 " fill-opacity="1" fill-rule="evenodd"/></g></g></g><g clip-path="url(#153b601de2)"><g clip-path="url(#01f0f38c7e)"><g clip-path="url(#f44a153e27)"><path fill="#ffffff" d="M 526.722656 534.722656 C 526.746094 540.8125 526.769531 546.898438 526.789062 552.988281 C 446.140625 553.292969 365.464844 553.597656 284.808594 553.898438 C 284.785156 547.742188 284.761719 541.585938 284.738281 535.429688 C 365.300781 535.128906 445.867188 534.824219 526.433594 534.519531 C 526.566406 534.503906 526.703125 534.488281 526.722656 534.722656 Z M 526.722656 534.722656 " fill-opacity="1" fill-rule="evenodd"/></g></g></g><g clip-path="url(#6872ef0569)"><g clip-path="url(#36a133c4b0)"><g clip-path="url(#36948efe57)"><path fill="#ffffff" d="M 526.835938 565.5 C 526.796875 568.148438 526.992188 571.324219 526.777344 573.640625 C 446.21875 573.945312 365.628906 574.25 285.085938 574.550781 C 284.695312 572.625 284.863281 568.46875 284.957031 566.214844 C 365.488281 565.910156 446.011719 565.609375 526.546875 565.304688 C 526.683594 565.285156 526.820312 565.269531 526.839844 565.5 Z M 526.835938 565.5 " fill-opacity="1" fill-rule="evenodd"/></g></g></g><g clip-path="url(#0579b6ca6d)"><g clip-path="url(#6f55b62d80)"><g clip-path="url(#cf0c095ff3)"><path fill="#ffffff" d="M 526.914062 585.558594 C 526.9375 591.84375 526.960938 598.132812 526.984375 604.421875 C 446.335938 604.722656 365.660156 605.027344 285 605.332031 C 284.976562 598.980469 284.953125 592.625 284.929688 586.269531 C 365.492188 585.96875 446.058594 585.664062 526.625 585.363281 C 526.757812 585.34375 526.894531 585.324219 526.914062 585.558594 Z M 526.914062 585.558594 " fill-opacity="1" fill-rule="evenodd"/></g></g></g><g clip-path="url(#7897a4981d)"><g clip-path="url(#70e9dfc14f)"><g clip-path="url(#2e19c48ffb)"><path fill="#ffffff" d="M 527.027344 616.335938 C 527.066406 625.867188 527.101562 635.398438 527.136719 644.929688 C 446.488281 645.234375 365.8125 645.539062 285.152344 645.84375 C 285.117188 636.246094 285.082031 626.648438 285.042969 617.046875 C 365.605469 616.742188 446.175781 616.441406 526.738281 616.136719 C 526.875 616.121094 527.011719 616.105469 527.027344 616.335938 Z M 527.027344 616.335938 " fill-opacity="1" fill-rule="evenodd"/></g></g></g><g clip-path="url(#8b05649a9c)"><g clip-path="url(#aec04736c4)"><g clip-path="url(#5135a55774)"><path fill="#ffffff" d="M 527.261719 678.089844 C 527.285156 684.445312 527.308594 690.800781 527.332031 697.152344 C 446.683594 697.457031 366.007812 697.761719 285.347656 698.0625 C 285.324219 691.769531 285.300781 685.488281 285.277344 679.199219 C 285.265625 678.96875 285.304688 678.84375 285.378906 678.800781 C 365.914062 678.496094 446.4375 678.195312 526.972656 677.890625 C 527.105469 677.871094 527.242188 677.859375 527.261719 678.089844 Z M 527.261719 678.089844 " fill-opacity="1" fill-rule="evenodd"/></g></g></g><g clip-path="url(#5cf4ea71c0)"><g clip-path="url(#0010a088d2)"><g clip-path="url(#e99606b161)"><path fill="#ffffff" d="M 527.457031 729.726562 C 527.492188 739.519531 527.53125 749.320312 527.566406 759.113281 C 446.917969 759.414062 366.242188 759.71875 285.582031 760.023438 C 285.546875 750.160156 285.507812 740.300781 285.472656 730.4375 C 366.035156 730.132812 446.601562 729.828125 527.167969 729.527344 C 527.300781 729.507812 527.4375 729.492188 527.457031 729.726562 Z M 527.457031 729.726562 " fill-opacity="1" fill-rule="evenodd"/></g></g></g><g clip-path="url(#3b54ca69d8)"><g clip-path="url(#1ee518d2f3)"><g clip-path="url(#7396b018c2)"><path fill="#ffffff" d="M 527.609375 770.824219 C 527.570312 773.476562 527.765625 776.648438 527.550781 778.96875 C 446.992188 779.269531 366.402344 779.574219 285.855469 779.875 C 285.46875 777.949219 285.632812 773.796875 285.726562 771.535156 C 366.261719 771.230469 446.785156 770.929688 527.320312 770.625 C 527.457031 770.609375 527.59375 770.589844 527.609375 770.824219 Z M 527.609375 770.824219 " fill-opacity="1" fill-rule="evenodd"/></g></g></g><g clip-path="url(#097b417589)"><g clip-path="url(#910c2de2db)"><g clip-path="url(#c39d848e56)"><path fill="#ffffff" d="M 527.6875 791.484375 C 527.710938 797.570312 527.734375 803.660156 527.757812 809.753906 C 447.109375 810.058594 366.433594 810.359375 285.773438 810.664062 C 285.75 804.507812 285.726562 798.347656 285.703125 792.191406 C 366.265625 791.890625 446.835938 791.585938 527.398438 791.28125 C 527.535156 791.265625 527.671875 791.25 527.6875 791.484375 Z M 527.6875 791.484375 " fill-opacity="1" fill-rule="evenodd"/></g></g></g></svg>