<svg xmlns="http://www.w3.org/2000/svg" xmlns:xlink="http://www.w3.org/1999/xlink" width="1080" zoomAndPan="magnify" viewBox="0 0 810 809.999993" height="1080" preserveAspectRatio="xMidYMid meet" version="1.0"><defs><clipPath id="08f8a6d796"><path d="M 563 0 L 807 0 L 807 20 L 563 20 Z M 563 0 " clip-rule="nonzero"/></clipPath><clipPath id="cdbbd7bc26"><path d="M 806.945312 -0.917969 L 809.996094 809.828125 L 565.5 810.746094 L 562.449219 0.00390625 Z M 806.945312 -0.917969 " clip-rule="nonzero"/></clipPath><clipPath id="0b34cf541b"><path d="M 806.945312 -0.917969 L 809.996094 809.828125 L 565.5 810.746094 L 562.449219 0.00390625 Z M 806.945312 -0.917969 " clip-rule="nonzero"/></clipPath><clipPath id="815f4ee646"><path d="M 806.945312 -0.917969 L 809.996094 809.828125 L 565.5 810.746094 L 562.449219 0.00390625 Z M 806.945312 -0.917969 " clip-rule="nonzero"/></clipPath><clipPath id="bac9a5ff7a"><path d="M 563 29 L 807 29 L 807 40 L 563 40 Z M 563 29 " clip-rule="nonzero"/></clipPath><clipPath id="8a9d467f0d"><path d="M 806.945312 -0.917969 L 809.996094 809.828125 L 565.5 810.746094 L 562.449219 0.00390625 Z M 806.945312 -0.917969 " clip-rule="nonzero"/></clipPath><clipPath id="1780399a85"><path d="M 806.945312 -0.917969 L 809.996094 809.828125 L 565.5 810.746094 L 562.449219 0.00390625 Z M 806.945312 -0.917969 " clip-rule="nonzero"/></clipPath><clipPath id="5360ba3d69"><path d="M 806.945312 -0.917969 L 809.996094 809.828125 L 565.5 810.746094 L 562.449219 0.00390625 Z M 806.945312 -0.917969 " clip-rule="nonzero"/></clipPath><clipPath id="247dc46738"><path d="M 563 60 L 807 60 L 807 91 L 563 91 Z M 563 60 " clip-rule="nonzero"/></clipPath><clipPath id="e7d648a2d1"><path d="M 806.945312 -0.917969 L 809.996094 809.828125 L 565.5 810.746094 L 562.449219 0.00390625 Z M 806.945312 -0.917969 " clip-rule="nonzero"/></clipPath><clipPath id="fa1a19369b"><path d="M 806.945312 -0.917969 L 809.996094 809.828125 L 565.5 810.746094 L 562.449219 0.00390625 Z M 806.945312 -0.917969 " clip-rule="nonzero"/></clipPath><clipPath id="b53ba8ca60"><path d="M 806.945312 -0.917969 L 809.996094 809.828125 L 565.5 810.746094 L 562.449219 0.00390625 Z M 806.945312 -0.917969 " clip-rule="nonzero"/></clipPath><clipPath id="5758def9b1"><path d="M 564 112 L 807 112 L 807 153 L 564 153 Z M 564 112 " clip-rule="nonzero"/></clipPath><clipPath id="a2f3c3ff7a"><path d="M 806.945312 -0.917969 L 809.996094 809.828125 L 565.5 810.746094 L 562.449219 0.00390625 Z M 806.945312 -0.917969 " clip-rule="nonzero"/></clipPath><clipPath id="9735ce7ed1"><path d="M 806.945312 -0.917969 L 809.996094 809.828125 L 565.5 810.746094 L 562.449219 0.00390625 Z M 806.945312 -0.917969 " clip-rule="nonzero"/></clipPath><clipPath id="f94bac570a"><path d="M 806.945312 -0.917969 L 809.996094 809.828125 L 565.5 810.746094 L 562.449219 0.00390625 Z M 806.945312 -0.917969 " clip-rule="nonzero"/></clipPath><clipPath id="d7f970d097"><path d="M 564 164 L 807 164 L 807 174 L 564 174 Z M 564 164 " clip-rule="nonzero"/></clipPath><clipPath id="7878f988e7"><path d="M 806.945312 -0.917969 L 809.996094 809.828125 L 565.5 810.746094 L 562.449219 0.00390625 Z M 806.945312 -0.917969 " clip-rule="nonzero"/></clipPath><clipPath id="86a3bed0ae"><path d="M 806.945312 -0.917969 L 809.996094 809.828125 L 565.5 810.746094 L 562.449219 0.00390625 Z M 806.945312 -0.917969 " clip-rule="nonzero"/></clipPath><clipPath id="4590a0a644"><path d="M 806.945312 -0.917969 L 809.996094 809.828125 L 565.5 810.746094 L 562.449219 0.00390625 Z M 806.945312 -0.917969 " clip-rule="nonzero"/></clipPath><clipPath id="299f56fc71"><path d="M 564 183 L 807 183 L 807 215 L 564 215 Z M 564 183 " clip-rule="nonzero"/></clipPath><clipPath id="bbc178c529"><path d="M 806.945312 -0.917969 L 809.996094 809.828125 L 565.5 810.746094 L 562.449219 0.00390625 Z M 806.945312 -0.917969 " clip-rule="nonzero"/></clipPath><clipPath id="56254ae466"><path d="M 806.945312 -0.917969 L 809.996094 809.828125 L 565.5 810.746094 L 562.449219 0.00390625 Z M 806.945312 -0.917969 " clip-rule="nonzero"/></clipPath><clipPath id="9c0e14e3c2"><path d="M 806.945312 -0.917969 L 809.996094 809.828125 L 565.5 810.746094 L 562.449219 0.00390625 Z M 806.945312 -0.917969 " clip-rule="nonzero"/></clipPath><clipPath id="b2b4a894b7"><path d="M 564 225 L 808 225 L 808 235 L 564 235 Z M 564 225 " clip-rule="nonzero"/></clipPath><clipPath id="ef5cedc534"><path d="M 806.945312 -0.917969 L 809.996094 809.828125 L 565.5 810.746094 L 562.449219 0.00390625 Z M 806.945312 -0.917969 " clip-rule="nonzero"/></clipPath><clipPath id="8a4c48055d"><path d="M 806.945312 -0.917969 L 809.996094 809.828125 L 565.5 810.746094 L 562.449219 0.00390625 Z M 806.945312 -0.917969 " clip-rule="nonzero"/></clipPath><clipPath id="f947913f24"><path d="M 806.945312 -0.917969 L 809.996094 809.828125 L 565.5 810.746094 L 562.449219 0.00390625 Z M 806.945312 -0.917969 " clip-rule="nonzero"/></clipPath><clipPath id="c1d27a5489"><path d="M 564 245 L 808 245 L 808 266 L 564 266 Z M 564 245 " clip-rule="nonzero"/></clipPath><clipPath id="5ac0017bd5"><path d="M 806.945312 -0.917969 L 809.996094 809.828125 L 565.5 810.746094 L 562.449219 0.00390625 Z M 806.945312 -0.917969 " clip-rule="nonzero"/></clipPath><clipPath id="d84a4fe5ff"><path d="M 806.945312 -0.917969 L 809.996094 809.828125 L 565.5 810.746094 L 562.449219 0.00390625 Z M 806.945312 -0.917969 " clip-rule="nonzero"/></clipPath><clipPath id="0395488e76"><path d="M 806.945312 -0.917969 L 809.996094 809.828125 L 565.5 810.746094 L 562.449219 0.00390625 Z M 806.945312 -0.917969 " clip-rule="nonzero"/></clipPath><clipPath id="a8841baec8"><path d="M 564 287 L 808 287 L 808 317 L 564 317 Z M 564 287 " clip-rule="nonzero"/></clipPath><clipPath id="c7d52559dd"><path d="M 806.945312 -0.917969 L 809.996094 809.828125 L 565.5 810.746094 L 562.449219 0.00390625 Z M 806.945312 -0.917969 " clip-rule="nonzero"/></clipPath><clipPath id="530dc5e50b"><path d="M 806.945312 -0.917969 L 809.996094 809.828125 L 565.5 810.746094 L 562.449219 0.00390625 Z M 806.945312 -0.917969 " clip-rule="nonzero"/></clipPath><clipPath id="6afa001387"><path d="M 806.945312 -0.917969 L 809.996094 809.828125 L 565.5 810.746094 L 562.449219 0.00390625 Z M 806.945312 -0.917969 " clip-rule="nonzero"/></clipPath><clipPath id="a9b2cc5489"><path d="M 564 338 L 808 338 L 808 348 L 564 348 Z M 564 338 " clip-rule="nonzero"/></clipPath><clipPath id="dda4153bb7"><path d="M 806.945312 -0.917969 L 809.996094 809.828125 L 565.5 810.746094 L 562.449219 0.00390625 Z M 806.945312 -0.917969 " clip-rule="nonzero"/></clipPath><clipPath id="5e0e03e8fb"><path d="M 806.945312 -0.917969 L 809.996094 809.828125 L 565.5 810.746094 L 562.449219 0.00390625 Z M 806.945312 -0.917969 " clip-rule="nonzero"/></clipPath><clipPath id="ab752bae1e"><path d="M 806.945312 -0.917969 L 809.996094 809.828125 L 565.5 810.746094 L 562.449219 0.00390625 Z M 806.945312 -0.917969 " clip-rule="nonzero"/></clipPath><clipPath id="7ad381b7ff"><path d="M 565 379 L 808 379 L 808 390 L 565 390 Z M 565 379 " clip-rule="nonzero"/></clipPath><clipPath id="4d1ed45d40"><path d="M 806.945312 -0.917969 L 809.996094 809.828125 L 565.5 810.746094 L 562.449219 0.00390625 Z M 806.945312 -0.917969 " clip-rule="nonzero"/></clipPath><clipPath id="96e5626f39"><path d="M 806.945312 -0.917969 L 809.996094 809.828125 L 565.5 810.746094 L 562.449219 0.00390625 Z M 806.945312 -0.917969 " clip-rule="nonzero"/></clipPath><clipPath id="e054f58eef"><path d="M 806.945312 -0.917969 L 809.996094 809.828125 L 565.5 810.746094 L 562.449219 0.00390625 Z M 806.945312 -0.917969 " clip-rule="nonzero"/></clipPath><clipPath id="d9889eee6f"><path d="M 565 400 L 808 400 L 808 421 L 565 421 Z M 565 400 " clip-rule="nonzero"/></clipPath><clipPath id="752da87637"><path d="M 806.945312 -0.917969 L 809.996094 809.828125 L 565.5 810.746094 L 562.449219 0.00390625 Z M 806.945312 -0.917969 " clip-rule="nonzero"/></clipPath><clipPath id="4ac7e9c82a"><path d="M 806.945312 -0.917969 L 809.996094 809.828125 L 565.5 810.746094 L 562.449219 0.00390625 Z M 806.945312 -0.917969 " clip-rule="nonzero"/></clipPath><clipPath id="07caa0f6cf"><path d="M 806.945312 -0.917969 L 809.996094 809.828125 L 565.5 810.746094 L 562.449219 0.00390625 Z M 806.945312 -0.917969 " clip-rule="nonzero"/></clipPath><clipPath id="180ea9843a"><path d="M 565 452 L 808 452 L 808 482 L 565 482 Z M 565 452 " clip-rule="nonzero"/></clipPath><clipPath id="e8f2c6643c"><path d="M 806.945312 -0.917969 L 809.996094 809.828125 L 565.5 810.746094 L 562.449219 0.00390625 Z M 806.945312 -0.917969 " clip-rule="nonzero"/></clipPath><clipPath id="8bfdd203eb"><path d="M 806.945312 -0.917969 L 809.996094 809.828125 L 565.5 810.746094 L 562.449219 0.00390625 Z M 806.945312 -0.917969 " clip-rule="nonzero"/></clipPath><clipPath id="6cac63dba9"><path d="M 806.945312 -0.917969 L 809.996094 809.828125 L 565.5 810.746094 L 562.449219 0.00390625 Z M 806.945312 -0.917969 " clip-rule="nonzero"/></clipPath><clipPath id="0f0f076f8b"><path d="M 565 513 L 809 513 L 809 523 L 565 523 Z M 565 513 " clip-rule="nonzero"/></clipPath><clipPath id="3bad0e0516"><path d="M 806.945312 -0.917969 L 809.996094 809.828125 L 565.5 810.746094 L 562.449219 0.00390625 Z M 806.945312 -0.917969 " clip-rule="nonzero"/></clipPath><clipPath id="d346f6056b"><path d="M 806.945312 -0.917969 L 809.996094 809.828125 L 565.5 810.746094 L 562.449219 0.00390625 Z M 806.945312 -0.917969 " clip-rule="nonzero"/></clipPath><clipPath id="168694d207"><path d="M 806.945312 -0.917969 L 809.996094 809.828125 L 565.5 810.746094 L 562.449219 0.00390625 Z M 806.945312 -0.917969 " clip-rule="nonzero"/></clipPath><clipPath id="8508fe5043"><path d="M 565 534 L 809 534 L 809 554 L 565 554 Z M 565 534 " clip-rule="nonzero"/></clipPath><clipPath id="20f81c5e72"><path d="M 806.945312 -0.917969 L 809.996094 809.828125 L 565.5 810.746094 L 562.449219 0.00390625 Z M 806.945312 -0.917969 " clip-rule="nonzero"/></clipPath><clipPath id="8f3d9edcc2"><path d="M 806.945312 -0.917969 L 809.996094 809.828125 L 565.5 810.746094 L 562.449219 0.00390625 Z M 806.945312 -0.917969 " clip-rule="nonzero"/></clipPath><clipPath id="6b9c67e740"><path d="M 806.945312 -0.917969 L 809.996094 809.828125 L 565.5 810.746094 L 562.449219 0.00390625 Z M 806.945312 -0.917969 " clip-rule="nonzero"/></clipPath><clipPath id="eab0d94c6c"><path d="M 565 565 L 809 565 L 809 575 L 565 575 Z M 565 565 " clip-rule="nonzero"/></clipPath><clipPath id="37c9e50e60"><path d="M 806.945312 -0.917969 L 809.996094 809.828125 L 565.5 810.746094 L 562.449219 0.00390625 Z M 806.945312 -0.917969 " clip-rule="nonzero"/></clipPath><clipPath id="5694990344"><path d="M 806.945312 -0.917969 L 809.996094 809.828125 L 565.5 810.746094 L 562.449219 0.00390625 Z M 806.945312 -0.917969 " clip-rule="nonzero"/></clipPath><clipPath id="db750cb927"><path d="M 806.945312 -0.917969 L 809.996094 809.828125 L 565.5 810.746094 L 562.449219 0.00390625 Z M 806.945312 -0.917969 " clip-rule="nonzero"/></clipPath><clipPath id="d611cb00e7"><path d="M 565 585 L 809 585 L 809 606 L 565 606 Z M 565 585 " clip-rule="nonzero"/></clipPath><clipPath id="a2d6dde58d"><path d="M 806.945312 -0.917969 L 809.996094 809.828125 L 565.5 810.746094 L 562.449219 0.00390625 Z M 806.945312 -0.917969 " clip-rule="nonzero"/></clipPath><clipPath id="8eda4eca33"><path d="M 806.945312 -0.917969 L 809.996094 809.828125 L 565.5 810.746094 L 562.449219 0.00390625 Z M 806.945312 -0.917969 " clip-rule="nonzero"/></clipPath><clipPath id="7860d01946"><path d="M 806.945312 -0.917969 L 809.996094 809.828125 L 565.5 810.746094 L 562.449219 0.00390625 Z M 806.945312 -0.917969 " clip-rule="nonzero"/></clipPath><clipPath id="d513ed8145"><path d="M 566 616 L 809 616 L 809 646 L 566 646 Z M 566 616 " clip-rule="nonzero"/></clipPath><clipPath id="c50561c0c1"><path d="M 806.945312 -0.917969 L 809.996094 809.828125 L 565.5 810.746094 L 562.449219 0.00390625 Z M 806.945312 -0.917969 " clip-rule="nonzero"/></clipPath><clipPath id="c1b22ff05a"><path d="M 806.945312 -0.917969 L 809.996094 809.828125 L 565.5 810.746094 L 562.449219 0.00390625 Z M 806.945312 -0.917969 " clip-rule="nonzero"/></clipPath><clipPath id="b38a742de9"><path d="M 806.945312 -0.917969 L 809.996094 809.828125 L 565.5 810.746094 L 562.449219 0.00390625 Z M 806.945312 -0.917969 " clip-rule="nonzero"/></clipPath><clipPath id="95f83eda8a"><path d="M 566 678 L 809 678 L 809 699 L 566 699 Z M 566 678 " clip-rule="nonzero"/></clipPath><clipPath id="d5a4bf7e54"><path d="M 806.945312 -0.917969 L 809.996094 809.828125 L 565.5 810.746094 L 562.449219 0.00390625 Z M 806.945312 -0.917969 " clip-rule="nonzero"/></clipPath><clipPath id="35e00f6f35"><path d="M 806.945312 -0.917969 L 809.996094 809.828125 L 565.5 810.746094 L 562.449219 0.00390625 Z M 806.945312 -0.917969 " clip-rule="nonzero"/></clipPath><clipPath id="ab0dce03f6"><path d="M 806.945312 -0.917969 L 809.996094 809.828125 L 565.5 810.746094 L 562.449219 0.00390625 Z M 806.945312 -0.917969 " clip-rule="nonzero"/></clipPath><clipPath id="f1c98262d0"><path d="M 566 729 L 810 729 L 810 761 L 566 761 Z M 566 729 " clip-rule="nonzero"/></clipPath><clipPath id="835fbf6f93"><path d="M 806.945312 -0.917969 L 809.996094 809.828125 L 565.5 810.746094 L 562.449219 0.00390625 Z M 806.945312 -0.917969 " clip-rule="nonzero"/></clipPath><clipPath id="011557d608"><path d="M 806.945312 -0.917969 L 809.996094 809.828125 L 565.5 810.746094 L 562.449219 0.00390625 Z M 806.945312 -0.917969 " clip-rule="nonzero"/></clipPath><clipPath id="fb5a6e9c7d"><path d="M 806.945312 -0.917969 L 809.996094 809.828125 L 565.5 810.746094 L 562.449219 0.00390625 Z M 806.945312 -0.917969 " clip-rule="nonzero"/></clipPath><clipPath id="a71a059d4f"><path d="M 566 770 L 810 770 L 810 781 L 566 781 Z M 566 770 " clip-rule="nonzero"/></clipPath><clipPath id="9b2bb76eca"><path d="M 806.945312 -0.917969 L 809.996094 809.828125 L 565.5 810.746094 L 562.449219 0.00390625 Z M 806.945312 -0.917969 " clip-rule="nonzero"/></clipPath><clipPath id="50fa683c1e"><path d="M 806.945312 -0.917969 L 809.996094 809.828125 L 565.5 810.746094 L 562.449219 0.00390625 Z M 806.945312 -0.917969 " clip-rule="nonzero"/></clipPath><clipPath id="0d77b23158"><path d="M 806.945312 -0.917969 L 809.996094 809.828125 L 565.5 810.746094 L 562.449219 0.00390625 Z M 806.945312 -0.917969 " clip-rule="nonzero"/></clipPath><clipPath id="9deef43c37"><path d="M 566 791 L 810 791 L 810 810 L 566 810 Z M 566 791 " clip-rule="nonzero"/></clipPath><clipPath id="d00f7bd386"><path d="M 806.945312 -0.917969 L 809.996094 809.828125 L 565.5 810.746094 L 562.449219 0.00390625 Z M 806.945312 -0.917969 " clip-rule="nonzero"/></clipPath><clipPath id="e31b95e7d9"><path d="M 806.945312 -0.917969 L 809.996094 809.828125 L 565.5 810.746094 L 562.449219 0.00390625 Z M 806.945312 -0.917969 " clip-rule="nonzero"/></clipPath><clipPath id="4a990d4b7a"><path d="M 806.945312 -0.917969 L 809.996094 809.828125 L 565.5 810.746094 L 562.449219 0.00390625 Z M 806.945312 -0.917969 " clip-rule="nonzero"/></clipPath></defs><g clip-path="url(#08f8a6d796)"><g clip-path="url(#cdbbd7bc26)"><g clip-path="url(#0b34cf541b)"><g clip-path="url(#815f4ee646)"><path fill="#000000" d="M 806.171875 -0.707031 C 806.195312 5.589844 806.21875 11.882812 806.242188 18.175781 C 725.433594 18.480469 644.597656 18.785156 563.777344 19.089844 C 563.753906 12.730469 563.726562 6.363281 563.703125 0.0078125 C 644.425781 -0.296875 725.15625 -0.597656 805.878906 -0.902344 C 806.015625 -0.921875 806.152344 -0.9375 806.171875 -0.710938 Z M 806.171875 -0.707031 " fill-opacity="1" fill-rule="evenodd"/></g></g></g></g><g clip-path="url(#bac9a5ff7a)"><g clip-path="url(#8a9d467f0d)"><g clip-path="url(#1780399a85)"><g clip-path="url(#5360ba3d69)"><path fill="#000000" d="M 806.285156 30.101562 C 806.246094 32.753906 806.441406 35.925781 806.226562 38.253906 C 725.507812 38.554688 644.757812 38.859375 564.050781 39.164062 C 563.660156 37.230469 563.828125 33.074219 563.921875 30.8125 C 644.617188 30.511719 725.300781 30.207031 805.996094 29.902344 C 806.132812 29.886719 806.269531 29.867188 806.285156 30.101562 Z M 806.285156 30.101562 " fill-opacity="1" fill-rule="evenodd"/></g></g></g></g><g clip-path="url(#247dc46738)"><g clip-path="url(#e7d648a2d1)"><g clip-path="url(#fa1a19369b)"><g clip-path="url(#b53ba8ca60)"><path fill="#000000" d="M 806.402344 61.109375 C 806.4375 70.648438 806.476562 80.183594 806.511719 89.730469 C 725.703125 90.035156 644.867188 90.339844 564.046875 90.640625 C 564.007812 81.03125 563.972656 71.425781 563.9375 61.820312 C 644.660156 61.519531 725.386719 61.214844 806.113281 60.910156 C 806.25 60.894531 806.386719 60.878906 806.402344 61.109375 Z M 806.402344 61.109375 " fill-opacity="1" fill-rule="evenodd"/></g></g></g></g><g clip-path="url(#5758def9b1)"><g clip-path="url(#a2f3c3ff7a)"><g clip-path="url(#9735ce7ed1)"><g clip-path="url(#f94bac570a)"><path fill="#000000" d="M 806.597656 112.585938 C 806.644531 125.570312 806.695312 138.558594 806.742188 151.542969 C 725.933594 151.847656 645.097656 152.148438 564.277344 152.453125 C 564.230469 139.402344 564.179688 126.351562 564.128906 113.300781 C 644.851562 113 725.582031 112.695312 806.308594 112.390625 C 806.441406 112.375 806.578125 112.355469 806.597656 112.585938 Z M 806.597656 112.585938 " fill-opacity="1" fill-rule="evenodd"/></g></g></g></g><g clip-path="url(#d7f970d097)"><g clip-path="url(#7878f988e7)"><g clip-path="url(#86a3bed0ae)"><g clip-path="url(#4590a0a644)"><path fill="#000000" d="M 806.792969 164.265625 C 806.75 166.847656 806.945312 169.960938 806.730469 172.214844 C 726.03125 172.519531 645.347656 172.824219 564.652344 173.128906 C 564.554688 173.128906 564.457031 173.128906 564.355469 173.128906 C 564.421875 170.472656 564.214844 167.296875 564.425781 164.980469 C 645.121094 164.675781 725.804688 164.371094 806.5 164.070312 C 806.636719 164.050781 806.773438 164.035156 806.792969 164.265625 Z M 806.792969 164.265625 " fill-opacity="1" fill-rule="evenodd"/></g></g></g></g><g clip-path="url(#299f56fc71)"><g clip-path="url(#bbc178c529)"><g clip-path="url(#56254ae466)"><g clip-path="url(#9c0e14e3c2)"><path fill="#000000" d="M 806.867188 184.144531 C 806.902344 193.945312 806.941406 203.753906 806.976562 213.558594 C 726.167969 213.859375 645.332031 214.164062 564.511719 214.46875 C 564.472656 204.597656 564.4375 194.726562 564.398438 184.855469 C 645.121094 184.550781 725.851562 184.246094 806.578125 183.941406 C 806.710938 183.925781 806.847656 183.90625 806.867188 184.144531 Z M 806.867188 184.144531 " fill-opacity="1" fill-rule="evenodd"/></g></g></g></g><g clip-path="url(#b2b4a894b7)"><g clip-path="url(#ef5cedc534)"><g clip-path="url(#8a4c48055d)"><g clip-path="url(#f947913f24)"><path fill="#000000" d="M 807.023438 226.082031 C 806.984375 228.664062 807.179688 231.777344 806.964844 234.03125 C 726.261719 234.332031 645.578125 234.636719 564.882812 234.941406 C 564.789062 234.941406 564.691406 234.941406 564.589844 234.941406 C 564.652344 232.289062 564.445312 229.113281 564.660156 226.796875 C 645.355469 226.492188 726.039062 226.191406 806.734375 225.886719 C 806.871094 225.867188 807.007812 225.851562 807.023438 226.082031 Z M 807.023438 226.082031 " fill-opacity="1" fill-rule="evenodd"/></g></g></g></g><g clip-path="url(#c1d27a5489)"><g clip-path="url(#5ac0017bd5)"><g clip-path="url(#d84a4fe5ff)"><g clip-path="url(#0395488e76)"><path fill="#000000" d="M 807.097656 245.960938 C 807.121094 252.320312 807.148438 258.675781 807.171875 265.035156 C 726.363281 265.339844 645.523438 265.644531 564.703125 265.949219 C 564.679688 259.660156 564.65625 253.359375 564.632812 247.066406 C 564.621094 246.835938 564.660156 246.714844 564.734375 246.671875 C 645.429688 246.367188 726.113281 246.0625 806.808594 245.761719 C 806.945312 245.742188 807.082031 245.722656 807.097656 245.960938 Z M 807.097656 245.960938 " fill-opacity="1" fill-rule="evenodd"/></g></g></g></g><g clip-path="url(#a8841baec8)"><g clip-path="url(#c7d52559dd)"><g clip-path="url(#530dc5e50b)"><g clip-path="url(#6afa001387)"><path fill="#000000" d="M 807.257812 287.898438 C 807.292969 297.238281 807.328125 306.578125 807.363281 315.917969 C 726.554688 316.222656 645.71875 316.527344 564.894531 316.832031 C 564.863281 307.558594 564.828125 298.28125 564.792969 289.007812 C 564.777344 288.777344 564.820312 288.652344 564.894531 288.605469 C 645.585938 288.300781 726.269531 287.996094 806.964844 287.691406 C 807.101562 287.679688 807.238281 287.664062 807.257812 287.898438 Z M 807.257812 287.898438 " fill-opacity="1" fill-rule="evenodd"/></g></g></g></g><g clip-path="url(#a9b2cc5489)"><g clip-path="url(#dda4153bb7)"><g clip-path="url(#5e0e03e8fb)"><g clip-path="url(#ab752bae1e)"><path fill="#000000" d="M 807.449219 338.777344 C 807.40625 341.425781 807.601562 344.609375 807.386719 346.925781 C 726.671875 347.230469 645.917969 347.535156 565.214844 347.839844 C 564.824219 345.910156 564.992188 341.75 565.085938 339.492188 C 645.777344 339.1875 726.460938 338.882812 807.160156 338.582031 C 807.292969 338.5625 807.429688 338.546875 807.449219 338.777344 Z M 807.449219 338.777344 " fill-opacity="1" fill-rule="evenodd"/></g></g></g></g><g clip-path="url(#7ad381b7ff)"><g clip-path="url(#4d1ed45d40)"><g clip-path="url(#96e5626f39)"><g clip-path="url(#e054f58eef)"><path fill="#000000" d="M 807.605469 380.121094 C 807.613281 382.964844 807.625 385.816406 807.636719 388.667969 C 726.914062 388.972656 646.1875 389.277344 565.464844 389.578125 C 565.371094 389.578125 565.273438 389.578125 565.171875 389.582031 C 565.160156 386.664062 565.148438 383.746094 565.136719 380.835938 C 645.859375 380.53125 726.589844 380.226562 807.3125 379.925781 C 807.449219 379.902344 807.585938 379.886719 807.605469 380.121094 Z M 807.605469 380.121094 " fill-opacity="1" fill-rule="evenodd"/></g></g></g></g><g clip-path="url(#d9889eee6f)"><g clip-path="url(#752da87637)"><g clip-path="url(#4ac7e9c82a)"><g clip-path="url(#07caa0f6cf)"><path fill="#000000" d="M 807.679688 400.59375 C 807.703125 406.953125 807.730469 413.3125 807.753906 419.667969 C 726.945312 419.972656 646.105469 420.277344 565.285156 420.582031 C 565.261719 414.292969 565.238281 408 565.214844 401.703125 C 565.203125 401.472656 565.242188 401.347656 565.316406 401.304688 C 646.011719 401 726.695312 400.695312 807.390625 400.394531 C 807.527344 400.378906 807.664062 400.359375 807.679688 400.59375 Z M 807.679688 400.59375 " fill-opacity="1" fill-rule="evenodd"/></g></g></g></g><g clip-path="url(#180ea9843a)"><g clip-path="url(#e8f2c6643c)"><g clip-path="url(#8bfdd203eb)"><g clip-path="url(#6cac63dba9)"><path fill="#000000" d="M 807.875 452.269531 C 807.910156 461.8125 807.949219 471.351562 807.984375 480.894531 C 727.175781 481.199219 646.335938 481.5 565.515625 481.804688 C 565.480469 472.195312 565.445312 462.589844 565.410156 452.984375 C 646.132812 452.679688 726.859375 452.375 807.585938 452.070312 C 807.722656 452.054688 807.859375 452.035156 807.875 452.269531 Z M 807.875 452.269531 " fill-opacity="1" fill-rule="evenodd"/></g></g></g></g><g clip-path="url(#0f0f076f8b)"><g clip-path="url(#3bad0e0516)"><g clip-path="url(#d346f6056b)"><g clip-path="url(#168694d207)"><path fill="#000000" d="M 808.109375 514.085938 C 808.066406 516.667969 808.261719 519.78125 808.046875 522.03125 C 727.347656 522.335938 646.664062 522.640625 565.96875 522.945312 C 565.871094 522.945312 565.773438 522.945312 565.671875 522.945312 C 565.738281 520.296875 565.53125 517.117188 565.742188 514.796875 C 646.4375 514.492188 727.121094 514.1875 807.816406 513.886719 C 807.953125 513.871094 808.089844 513.855469 808.109375 514.085938 Z M 808.109375 514.085938 " fill-opacity="1" fill-rule="evenodd"/></g></g></g></g><g clip-path="url(#8508fe5043)"><g clip-path="url(#20f81c5e72)"><g clip-path="url(#8f3d9edcc2)"><g clip-path="url(#6b9c67e740)"><path fill="#000000" d="M 808.1875 534.757812 C 808.207031 540.855469 808.230469 546.945312 808.253906 553.042969 C 727.445312 553.347656 646.609375 553.652344 565.789062 553.957031 C 565.765625 547.792969 565.742188 541.628906 565.71875 535.46875 C 646.441406 535.164062 727.171875 534.863281 807.894531 534.558594 C 808.03125 534.539062 808.167969 534.527344 808.1875 534.757812 Z M 808.1875 534.757812 " fill-opacity="1" fill-rule="evenodd"/></g></g></g></g><g clip-path="url(#eab0d94c6c)"><g clip-path="url(#37c9e50e60)"><g clip-path="url(#5694990344)"><g clip-path="url(#db750cb927)"><path fill="#000000" d="M 808.300781 565.566406 C 808.261719 568.21875 808.457031 571.394531 808.242188 573.714844 C 727.523438 574.019531 646.769531 574.324219 566.066406 574.625 C 565.675781 572.699219 565.84375 568.539062 565.9375 566.28125 C 646.632812 565.976562 727.316406 565.675781 808.011719 565.371094 C 808.148438 565.351562 808.285156 565.335938 808.300781 565.566406 Z M 808.300781 565.566406 " fill-opacity="1" fill-rule="evenodd"/></g></g></g></g><g clip-path="url(#d611cb00e7)"><g clip-path="url(#a2d6dde58d)"><g clip-path="url(#8eda4eca33)"><g clip-path="url(#7860d01946)"><path fill="#000000" d="M 808.378906 585.644531 C 808.402344 591.933594 808.425781 598.230469 808.449219 604.523438 C 727.640625 604.828125 646.804688 605.132812 565.980469 605.433594 C 565.957031 599.078125 565.933594 592.71875 565.910156 586.355469 C 646.632812 586.054688 727.363281 585.75 808.085938 585.445312 C 808.222656 585.429688 808.359375 585.40625 808.378906 585.644531 Z M 808.378906 585.644531 " fill-opacity="1" fill-rule="evenodd"/></g></g></g></g><g clip-path="url(#d513ed8145)"><g clip-path="url(#c50561c0c1)"><g clip-path="url(#c1b22ff05a)"><g clip-path="url(#b38a742de9)"><path fill="#000000" d="M 808.492188 616.449219 C 808.527344 625.988281 808.566406 635.527344 808.601562 645.070312 C 727.792969 645.375 646.957031 645.679688 566.136719 645.984375 C 566.097656 636.378906 566.0625 626.773438 566.027344 617.160156 C 646.75 616.855469 727.476562 616.554688 808.203125 616.25 C 808.339844 616.234375 808.476562 616.21875 808.492188 616.449219 Z M 808.492188 616.449219 " fill-opacity="1" fill-rule="evenodd"/></g></g></g></g><g clip-path="url(#95f83eda8a)"><g clip-path="url(#d5a4bf7e54)"><g clip-path="url(#35e00f6f35)"><g clip-path="url(#ab0dce03f6)"><path fill="#000000" d="M 808.726562 678.261719 C 808.75 684.621094 808.773438 690.980469 808.796875 697.339844 C 727.988281 697.644531 647.152344 697.949219 566.332031 698.253906 C 566.308594 691.957031 566.285156 685.667969 566.261719 679.371094 C 566.25 679.140625 566.289062 679.015625 566.363281 678.972656 C 647.054688 678.667969 727.738281 678.363281 808.4375 678.0625 C 808.570312 678.039062 808.707031 678.03125 808.726562 678.261719 Z M 808.726562 678.261719 " fill-opacity="1" fill-rule="evenodd"/></g></g></g></g><g clip-path="url(#f1c98262d0)"><g clip-path="url(#835fbf6f93)"><g clip-path="url(#011557d608)"><g clip-path="url(#fb5a6e9c7d)"><path fill="#000000" d="M 808.921875 729.941406 C 808.957031 739.746094 808.996094 749.554688 809.03125 759.355469 C 728.222656 759.660156 647.386719 759.964844 566.566406 760.269531 C 566.527344 750.398438 566.492188 740.527344 566.453125 730.65625 C 647.175781 730.351562 727.90625 730.046875 808.628906 729.742188 C 808.765625 729.722656 808.902344 729.710938 808.921875 729.941406 Z M 808.921875 729.941406 " fill-opacity="1" fill-rule="evenodd"/></g></g></g></g><g clip-path="url(#a71a059d4f)"><g clip-path="url(#9b2bb76eca)"><g clip-path="url(#50fa683c1e)"><g clip-path="url(#0d77b23158)"><path fill="#000000" d="M 809.074219 771.082031 C 809.035156 773.734375 809.230469 776.910156 809.015625 779.230469 C 728.296875 779.535156 647.542969 779.839844 566.839844 780.140625 C 566.449219 778.210938 566.617188 774.054688 566.710938 771.792969 C 647.40625 771.488281 728.089844 771.183594 808.785156 770.882812 C 808.921875 770.867188 809.058594 770.847656 809.074219 771.082031 Z M 809.074219 771.082031 " fill-opacity="1" fill-rule="evenodd"/></g></g></g></g><g clip-path="url(#9deef43c37)"><g clip-path="url(#d00f7bd386)"><g clip-path="url(#e31b95e7d9)"><g clip-path="url(#4a990d4b7a)"><path fill="#000000" d="M 809.152344 791.757812 C 809.175781 797.851562 809.199219 803.945312 809.222656 810.046875 C 728.414062 810.351562 647.578125 810.652344 566.753906 810.957031 C 566.734375 804.796875 566.710938 798.632812 566.6875 792.46875 C 647.410156 792.164062 728.136719 791.859375 808.863281 791.558594 C 809 791.539062 809.136719 791.523438 809.152344 791.757812 Z M 809.152344 791.757812 " fill-opacity="1" fill-rule="evenodd"/></g></g></g></g></svg>