<svg xmlns="http://www.w3.org/2000/svg" xmlns:xlink="http://www.w3.org/1999/xlink" width="1080" zoomAndPan="magnify" viewBox="0 0 810 809.999993" height="1080" preserveAspectRatio="xMidYMid meet" version="1.0"><defs><clipPath id="1eac3d99da"><path d="M 564 0 L 807 0 L 807 20 L 564 20 Z M 564 0 " clip-rule="nonzero"/></clipPath><clipPath id="17918f8755"><path d="M 806.949219 -0.00390625 L 809.996094 809.992188 L 566.25 810.910156 L 563.203125 0.914062 Z M 806.949219 -0.00390625 " clip-rule="nonzero"/></clipPath><clipPath id="d28a9866bf"><path d="M 806.949219 -0.00390625 L 809.996094 809.992188 L 566.25 810.910156 L 563.203125 0.914062 Z M 806.949219 -0.00390625 " clip-rule="nonzero"/></clipPath><clipPath id="606edd3e6d"><path d="M 564 30 L 807 30 L 807 41 L 564 41 Z M 564 30 " clip-rule="nonzero"/></clipPath><clipPath id="174eb9f475"><path d="M 806.949219 -0.00390625 L 809.996094 809.992188 L 566.25 810.910156 L 563.203125 0.914062 Z M 806.949219 -0.00390625 " clip-rule="nonzero"/></clipPath><clipPath id="5f83fa9847"><path d="M 806.949219 -0.00390625 L 809.996094 809.992188 L 566.25 810.910156 L 563.203125 0.914062 Z M 806.949219 -0.00390625 " clip-rule="nonzero"/></clipPath><clipPath id="4b838eb936"><path d="M 564 61 L 807 61 L 807 92 L 564 92 Z M 564 61 " clip-rule="nonzero"/></clipPath><clipPath id="0854e8ecef"><path d="M 806.949219 -0.00390625 L 809.996094 809.992188 L 566.25 810.910156 L 563.203125 0.914062 Z M 806.949219 -0.00390625 " clip-rule="nonzero"/></clipPath><clipPath id="c51557cad5"><path d="M 806.949219 -0.00390625 L 809.996094 809.992188 L 566.25 810.910156 L 563.203125 0.914062 Z M 806.949219 -0.00390625 " clip-rule="nonzero"/></clipPath><clipPath id="789a6f0ee9"><path d="M 564 113 L 807 113 L 807 154 L 564 154 Z M 564 113 " clip-rule="nonzero"/></clipPath><clipPath id="7b3a7888df"><path d="M 806.949219 -0.00390625 L 809.996094 809.992188 L 566.25 810.910156 L 563.203125 0.914062 Z M 806.949219 -0.00390625 " clip-rule="nonzero"/></clipPath><clipPath id="7c50e51e81"><path d="M 806.949219 -0.00390625 L 809.996094 809.992188 L 566.25 810.910156 L 563.203125 0.914062 Z M 806.949219 -0.00390625 " clip-rule="nonzero"/></clipPath><clipPath id="3bfbb3e2f8"><path d="M 564 164 L 807 164 L 807 174 L 564 174 Z M 564 164 " clip-rule="nonzero"/></clipPath><clipPath id="4712415949"><path d="M 806.949219 -0.00390625 L 809.996094 809.992188 L 566.25 810.910156 L 563.203125 0.914062 Z M 806.949219 -0.00390625 " clip-rule="nonzero"/></clipPath><clipPath id="4d999015c6"><path d="M 806.949219 -0.00390625 L 809.996094 809.992188 L 566.25 810.910156 L 563.203125 0.914062 Z M 806.949219 -0.00390625 " clip-rule="nonzero"/></clipPath><clipPath id="ab0bd572f3"><path d="M 564 184 L 807 184 L 807 216 L 564 216 Z M 564 184 " clip-rule="nonzero"/></clipPath><clipPath id="c5ca4907ce"><path d="M 806.949219 -0.00390625 L 809.996094 809.992188 L 566.25 810.910156 L 563.203125 0.914062 Z M 806.949219 -0.00390625 " clip-rule="nonzero"/></clipPath><clipPath id="c515b1fee7"><path d="M 806.949219 -0.00390625 L 809.996094 809.992188 L 566.25 810.910156 L 563.203125 0.914062 Z M 806.949219 -0.00390625 " clip-rule="nonzero"/></clipPath><clipPath id="898e9fec4b"><path d="M 565 226 L 808 226 L 808 236 L 565 236 Z M 565 226 " clip-rule="nonzero"/></clipPath><clipPath id="5bc3d23d2b"><path d="M 806.949219 -0.00390625 L 809.996094 809.992188 L 566.25 810.910156 L 563.203125 0.914062 Z M 806.949219 -0.00390625 " clip-rule="nonzero"/></clipPath><clipPath id="70a099a1f3"><path d="M 806.949219 -0.00390625 L 809.996094 809.992188 L 566.25 810.910156 L 563.203125 0.914062 Z M 806.949219 -0.00390625 " clip-rule="nonzero"/></clipPath><clipPath id="0d7b3e85da"><path d="M 565 246 L 808 246 L 808 267 L 565 267 Z M 565 246 " clip-rule="nonzero"/></clipPath><clipPath id="de0aa3b8bd"><path d="M 806.949219 -0.00390625 L 809.996094 809.992188 L 566.25 810.910156 L 563.203125 0.914062 Z M 806.949219 -0.00390625 " clip-rule="nonzero"/></clipPath><clipPath id="1c03fc01a3"><path d="M 806.949219 -0.00390625 L 809.996094 809.992188 L 566.25 810.910156 L 563.203125 0.914062 Z M 806.949219 -0.00390625 " clip-rule="nonzero"/></clipPath><clipPath id="f6969e3f55"><path d="M 565 288 L 808 288 L 808 318 L 565 318 Z M 565 288 " clip-rule="nonzero"/></clipPath><clipPath id="e004f0a0b8"><path d="M 806.949219 -0.00390625 L 809.996094 809.992188 L 566.25 810.910156 L 563.203125 0.914062 Z M 806.949219 -0.00390625 " clip-rule="nonzero"/></clipPath><clipPath id="02055bae9f"><path d="M 806.949219 -0.00390625 L 809.996094 809.992188 L 566.25 810.910156 L 563.203125 0.914062 Z M 806.949219 -0.00390625 " clip-rule="nonzero"/></clipPath><clipPath id="29fd50c231"><path d="M 565 339 L 808 339 L 808 349 L 565 349 Z M 565 339 " clip-rule="nonzero"/></clipPath><clipPath id="9d3b843224"><path d="M 806.949219 -0.00390625 L 809.996094 809.992188 L 566.25 810.910156 L 563.203125 0.914062 Z M 806.949219 -0.00390625 " clip-rule="nonzero"/></clipPath><clipPath id="a01d1ab0b9"><path d="M 806.949219 -0.00390625 L 809.996094 809.992188 L 566.25 810.910156 L 563.203125 0.914062 Z M 806.949219 -0.00390625 " clip-rule="nonzero"/></clipPath><clipPath id="21d446ae16"><path d="M 565 380 L 808 380 L 808 391 L 565 391 Z M 565 380 " clip-rule="nonzero"/></clipPath><clipPath id="adfb960ca0"><path d="M 806.949219 -0.00390625 L 809.996094 809.992188 L 566.25 810.910156 L 563.203125 0.914062 Z M 806.949219 -0.00390625 " clip-rule="nonzero"/></clipPath><clipPath id="9fecc199fe"><path d="M 806.949219 -0.00390625 L 809.996094 809.992188 L 566.25 810.910156 L 563.203125 0.914062 Z M 806.949219 -0.00390625 " clip-rule="nonzero"/></clipPath><clipPath id="1f984fd903"><path d="M 565 400 L 808 400 L 808 422 L 565 422 Z M 565 400 " clip-rule="nonzero"/></clipPath><clipPath id="740f12d254"><path d="M 806.949219 -0.00390625 L 809.996094 809.992188 L 566.25 810.910156 L 563.203125 0.914062 Z M 806.949219 -0.00390625 " clip-rule="nonzero"/></clipPath><clipPath id="bb0505a03b"><path d="M 806.949219 -0.00390625 L 809.996094 809.992188 L 566.25 810.910156 L 563.203125 0.914062 Z M 806.949219 -0.00390625 " clip-rule="nonzero"/></clipPath><clipPath id="356a51b674"><path d="M 565 452 L 808 452 L 808 483 L 565 483 Z M 565 452 " clip-rule="nonzero"/></clipPath><clipPath id="7ad4e1dac5"><path d="M 806.949219 -0.00390625 L 809.996094 809.992188 L 566.25 810.910156 L 563.203125 0.914062 Z M 806.949219 -0.00390625 " clip-rule="nonzero"/></clipPath><clipPath id="63dad12231"><path d="M 806.949219 -0.00390625 L 809.996094 809.992188 L 566.25 810.910156 L 563.203125 0.914062 Z M 806.949219 -0.00390625 " clip-rule="nonzero"/></clipPath><clipPath id="39fccfbc2e"><path d="M 566 514 L 809 514 L 809 524 L 566 524 Z M 566 514 " clip-rule="nonzero"/></clipPath><clipPath id="de3a28c7a8"><path d="M 806.949219 -0.00390625 L 809.996094 809.992188 L 566.25 810.910156 L 563.203125 0.914062 Z M 806.949219 -0.00390625 " clip-rule="nonzero"/></clipPath><clipPath id="b2b369fe00"><path d="M 806.949219 -0.00390625 L 809.996094 809.992188 L 566.25 810.910156 L 563.203125 0.914062 Z M 806.949219 -0.00390625 " clip-rule="nonzero"/></clipPath><clipPath id="c141da23bc"><path d="M 566 534 L 809 534 L 809 555 L 566 555 Z M 566 534 " clip-rule="nonzero"/></clipPath><clipPath id="cb05e8b8a2"><path d="M 806.949219 -0.00390625 L 809.996094 809.992188 L 566.25 810.910156 L 563.203125 0.914062 Z M 806.949219 -0.00390625 " clip-rule="nonzero"/></clipPath><clipPath id="2bd8b001ad"><path d="M 806.949219 -0.00390625 L 809.996094 809.992188 L 566.25 810.910156 L 563.203125 0.914062 Z M 806.949219 -0.00390625 " clip-rule="nonzero"/></clipPath><clipPath id="88758d7af3"><path d="M 566 565 L 809 565 L 809 576 L 566 576 Z M 566 565 " clip-rule="nonzero"/></clipPath><clipPath id="0792d5025a"><path d="M 806.949219 -0.00390625 L 809.996094 809.992188 L 566.25 810.910156 L 563.203125 0.914062 Z M 806.949219 -0.00390625 " clip-rule="nonzero"/></clipPath><clipPath id="3d014b472a"><path d="M 806.949219 -0.00390625 L 809.996094 809.992188 L 566.25 810.910156 L 563.203125 0.914062 Z M 806.949219 -0.00390625 " clip-rule="nonzero"/></clipPath><clipPath id="6b09fbdfff"><path d="M 566 585 L 809 585 L 809 606 L 566 606 Z M 566 585 " clip-rule="nonzero"/></clipPath><clipPath id="74b2eaf573"><path d="M 806.949219 -0.00390625 L 809.996094 809.992188 L 566.25 810.910156 L 563.203125 0.914062 Z M 806.949219 -0.00390625 " clip-rule="nonzero"/></clipPath><clipPath id="957ff8b861"><path d="M 806.949219 -0.00390625 L 809.996094 809.992188 L 566.25 810.910156 L 563.203125 0.914062 Z M 806.949219 -0.00390625 " clip-rule="nonzero"/></clipPath><clipPath id="e332d6cddb"><path d="M 566 616 L 809 616 L 809 647 L 566 647 Z M 566 616 " clip-rule="nonzero"/></clipPath><clipPath id="4d4db54ce2"><path d="M 806.949219 -0.00390625 L 809.996094 809.992188 L 566.25 810.910156 L 563.203125 0.914062 Z M 806.949219 -0.00390625 " clip-rule="nonzero"/></clipPath><clipPath id="988396e025"><path d="M 806.949219 -0.00390625 L 809.996094 809.992188 L 566.25 810.910156 L 563.203125 0.914062 Z M 806.949219 -0.00390625 " clip-rule="nonzero"/></clipPath><clipPath id="59e5af850d"><path d="M 566 678 L 809 678 L 809 699 L 566 699 Z M 566 678 " clip-rule="nonzero"/></clipPath><clipPath id="bb0d2fd313"><path d="M 806.949219 -0.00390625 L 809.996094 809.992188 L 566.25 810.910156 L 563.203125 0.914062 Z M 806.949219 -0.00390625 " clip-rule="nonzero"/></clipPath><clipPath id="8bee000722"><path d="M 806.949219 -0.00390625 L 809.996094 809.992188 L 566.25 810.910156 L 563.203125 0.914062 Z M 806.949219 -0.00390625 " clip-rule="nonzero"/></clipPath><clipPath id="2e2e36e4a0"><path d="M 566 729 L 810 729 L 810 761 L 566 761 Z M 566 729 " clip-rule="nonzero"/></clipPath><clipPath id="7683fe2268"><path d="M 806.949219 -0.00390625 L 809.996094 809.992188 L 566.25 810.910156 L 563.203125 0.914062 Z M 806.949219 -0.00390625 " clip-rule="nonzero"/></clipPath><clipPath id="ab7964dd92"><path d="M 806.949219 -0.00390625 L 809.996094 809.992188 L 566.25 810.910156 L 563.203125 0.914062 Z M 806.949219 -0.00390625 " clip-rule="nonzero"/></clipPath><clipPath id="399bb0d419"><path d="M 567 771 L 810 771 L 810 781 L 567 781 Z M 567 771 " clip-rule="nonzero"/></clipPath><clipPath id="559ac43e6e"><path d="M 806.949219 -0.00390625 L 809.996094 809.992188 L 566.25 810.910156 L 563.203125 0.914062 Z M 806.949219 -0.00390625 " clip-rule="nonzero"/></clipPath><clipPath id="2cef7d7dcc"><path d="M 806.949219 -0.00390625 L 809.996094 809.992188 L 566.25 810.910156 L 563.203125 0.914062 Z M 806.949219 -0.00390625 " clip-rule="nonzero"/></clipPath><clipPath id="0264e38695"><path d="M 567 791 L 810 791 L 810 810 L 567 810 Z M 567 791 " clip-rule="nonzero"/></clipPath><clipPath id="502a0a962c"><path d="M 806.949219 -0.00390625 L 809.996094 809.992188 L 566.25 810.910156 L 563.203125 0.914062 Z M 806.949219 -0.00390625 " clip-rule="nonzero"/></clipPath><clipPath id="850f874976"><path d="M 806.949219 -0.00390625 L 809.996094 809.992188 L 566.25 810.910156 L 563.203125 0.914062 Z M 806.949219 -0.00390625 " clip-rule="nonzero"/></clipPath></defs><g clip-path="url(#1eac3d99da)"><g clip-path="url(#17918f8755)"><g clip-path="url(#d28a9866bf)"><path fill="#ffffff" d="M 806.179688 0.207031 C 806.203125 6.5 806.226562 12.785156 806.25 19.074219 C 725.601562 19.375 644.925781 19.679688 564.265625 19.984375 C 564.242188 13.632812 564.21875 7.273438 564.195312 0.921875 C 644.757812 0.617188 725.324219 0.316406 805.890625 0.0117188 C 806.023438 -0.0078125 806.160156 -0.0234375 806.179688 0.207031 Z M 806.179688 0.207031 " fill-opacity="1" fill-rule="evenodd"/></g></g></g><g clip-path="url(#606edd3e6d)"><g clip-path="url(#174eb9f475)"><g clip-path="url(#5f83fa9847)"><path fill="#ffffff" d="M 806.296875 30.988281 C 806.253906 33.636719 806.449219 36.804688 806.234375 39.128906 C 725.675781 39.433594 645.085938 39.738281 564.542969 40.039062 C 564.152344 38.109375 564.320312 33.957031 564.414062 31.699219 C 644.945312 31.394531 725.46875 31.09375 806.003906 30.789062 C 806.140625 30.773438 806.277344 30.753906 806.296875 30.988281 Z M 806.296875 30.988281 " fill-opacity="1" fill-rule="evenodd"/></g></g></g><g clip-path="url(#4b838eb936)"><g clip-path="url(#0854e8ecef)"><g clip-path="url(#c51557cad5)"><path fill="#ffffff" d="M 806.410156 61.964844 C 806.449219 71.496094 806.484375 81.023438 806.519531 90.5625 C 725.871094 90.863281 645.195312 91.167969 564.535156 91.472656 C 564.5 81.871094 564.464844 72.273438 564.425781 62.675781 C 644.988281 62.375 725.558594 62.070312 806.121094 61.769531 C 806.257812 61.753906 806.394531 61.734375 806.410156 61.964844 Z M 806.410156 61.964844 " fill-opacity="1" fill-rule="evenodd"/></g></g></g><g clip-path="url(#789a6f0ee9)"><g clip-path="url(#7b3a7888df)"><g clip-path="url(#7c50e51e81)"><path fill="#ffffff" d="M 806.605469 113.394531 C 806.652344 126.371094 806.703125 139.34375 806.75 152.316406 C 726.105469 152.617188 645.425781 152.921875 564.769531 153.226562 C 564.71875 140.1875 564.667969 127.148438 564.621094 114.109375 C 645.183594 113.808594 725.75 113.503906 806.316406 113.199219 C 806.449219 113.183594 806.589844 113.167969 806.605469 113.394531 Z M 806.605469 113.394531 " fill-opacity="1" fill-rule="evenodd"/></g></g></g><g clip-path="url(#3bfbb3e2f8)"><g clip-path="url(#4712415949)"><g clip-path="url(#4d999015c6)"><path fill="#ffffff" d="M 806.800781 165.027344 C 806.757812 167.605469 806.953125 170.71875 806.738281 172.972656 C 726.199219 173.273438 645.675781 173.578125 565.140625 173.878906 C 565.046875 173.878906 564.949219 173.882812 564.84375 173.882812 C 564.910156 171.230469 564.703125 168.054688 564.917969 165.742188 C 645.453125 165.4375 725.972656 165.132812 806.511719 164.832031 C 806.644531 164.8125 806.78125 164.796875 806.800781 165.027344 Z M 806.800781 165.027344 " fill-opacity="1" fill-rule="evenodd"/></g></g></g><g clip-path="url(#ab0bd572f3)"><g clip-path="url(#c5ca4907ce)"><g clip-path="url(#c515b1fee7)"><path fill="#ffffff" d="M 806.875 184.886719 C 806.910156 194.679688 806.949219 204.476562 806.984375 214.273438 C 726.335938 214.578125 645.660156 214.878906 565 215.183594 C 564.964844 205.324219 564.925781 195.457031 564.890625 185.59375 C 645.453125 185.292969 726.019531 184.988281 806.585938 184.6875 C 806.71875 184.671875 806.855469 184.648438 806.875 184.886719 Z M 806.875 184.886719 " fill-opacity="1" fill-rule="evenodd"/></g></g></g><g clip-path="url(#898e9fec4b)"><g clip-path="url(#5bc3d23d2b)"><g clip-path="url(#70a099a1f3)"><path fill="#ffffff" d="M 807.03125 226.785156 C 806.992188 229.367188 807.183594 232.476562 806.972656 234.726562 C 726.429688 235.03125 645.90625 235.332031 565.375 235.636719 C 565.277344 235.636719 565.179688 235.636719 565.078125 235.636719 C 565.140625 232.988281 564.9375 229.816406 565.148438 227.5 C 645.683594 227.195312 726.207031 226.894531 806.742188 226.589844 C 806.878906 226.570312 807.015625 226.554688 807.03125 226.785156 Z M 807.03125 226.785156 " fill-opacity="1" fill-rule="evenodd"/></g></g></g><g clip-path="url(#0d7b3e85da)"><g clip-path="url(#de0aa3b8bd)"><g clip-path="url(#1c03fc01a3)"><path fill="#ffffff" d="M 807.105469 246.644531 C 807.128906 253 807.15625 259.351562 807.179688 265.703125 C 726.53125 266.007812 645.855469 266.3125 565.195312 266.613281 C 565.171875 260.332031 565.148438 254.039062 565.125 247.75 C 565.109375 247.519531 565.148438 247.398438 565.222656 247.355469 C 645.757812 247.054688 726.28125 246.75 806.816406 246.445312 C 806.953125 246.425781 807.089844 246.40625 807.105469 246.644531 Z M 807.105469 246.644531 " fill-opacity="1" fill-rule="evenodd"/></g></g></g><g clip-path="url(#f6969e3f55)"><g clip-path="url(#e004f0a0b8)"><g clip-path="url(#02055bae9f)"><path fill="#ffffff" d="M 807.265625 288.542969 C 807.300781 297.878906 807.335938 307.207031 807.371094 316.542969 C 726.722656 316.84375 646.046875 317.148438 565.386719 317.453125 C 565.351562 308.1875 565.316406 298.917969 565.28125 289.652344 C 565.269531 289.421875 565.308594 289.296875 565.382812 289.25 C 645.917969 288.945312 726.4375 288.644531 806.976562 288.339844 C 807.109375 288.328125 807.246094 288.3125 807.265625 288.542969 Z M 807.265625 288.542969 " fill-opacity="1" fill-rule="evenodd"/></g></g></g><g clip-path="url(#29fd50c231)"><g clip-path="url(#9d3b843224)"><g clip-path="url(#a01d1ab0b9)"><path fill="#ffffff" d="M 807.457031 339.375 C 807.414062 342.023438 807.609375 345.203125 807.394531 347.519531 C 726.839844 347.824219 646.246094 348.125 565.703125 348.429688 C 565.3125 346.503906 565.480469 342.34375 565.574219 340.089844 C 646.109375 339.785156 726.628906 339.484375 807.167969 339.179688 C 807.300781 339.164062 807.4375 339.144531 807.457031 339.375 Z M 807.457031 339.375 " fill-opacity="1" fill-rule="evenodd"/></g></g></g><g clip-path="url(#21d446ae16)"><g clip-path="url(#adfb960ca0)"><g clip-path="url(#9fecc199fe)"><path fill="#ffffff" d="M 807.609375 380.683594 C 807.621094 383.523438 807.632812 386.375 807.644531 389.222656 C 727.082031 389.523438 646.515625 389.828125 565.953125 390.132812 C 565.859375 390.132812 565.761719 390.132812 565.660156 390.132812 C 565.648438 387.21875 565.636719 384.304688 565.625 381.394531 C 646.1875 381.09375 726.757812 380.789062 807.320312 380.488281 C 807.457031 380.464844 807.59375 380.449219 807.609375 380.683594 Z M 807.609375 380.683594 " fill-opacity="1" fill-rule="evenodd"/></g></g></g><g clip-path="url(#1f984fd903)"><g clip-path="url(#740f12d254)"><g clip-path="url(#bb0505a03b)"><path fill="#ffffff" d="M 807.6875 401.136719 C 807.710938 407.488281 807.734375 413.84375 807.757812 420.195312 C 727.113281 420.496094 646.4375 420.800781 565.777344 421.105469 C 565.753906 414.820312 565.730469 408.535156 565.703125 402.246094 C 565.691406 402.015625 565.730469 401.890625 565.804688 401.847656 C 646.339844 401.542969 726.863281 401.238281 807.398438 400.9375 C 807.535156 400.921875 807.671875 400.902344 807.6875 401.136719 Z M 807.6875 401.136719 " fill-opacity="1" fill-rule="evenodd"/></g></g></g><g clip-path="url(#356a51b674)"><g clip-path="url(#7ad4e1dac5)"><g clip-path="url(#63dad12231)"><path fill="#ffffff" d="M 807.882812 452.765625 C 807.917969 462.296875 807.953125 471.828125 807.988281 481.363281 C 727.34375 481.664062 646.664062 481.96875 566.007812 482.273438 C 565.96875 472.671875 565.933594 463.074219 565.898438 453.476562 C 646.460938 453.171875 727.027344 452.871094 807.59375 452.566406 C 807.726562 452.550781 807.863281 452.53125 807.882812 452.765625 Z M 807.882812 452.765625 " fill-opacity="1" fill-rule="evenodd"/></g></g></g><g clip-path="url(#39fccfbc2e)"><g clip-path="url(#de3a28c7a8)"><g clip-path="url(#b2b369fe00)"><path fill="#ffffff" d="M 808.113281 514.523438 C 808.074219 517.105469 808.269531 520.214844 808.054688 522.464844 C 727.511719 522.765625 646.992188 523.070312 566.457031 523.371094 C 566.359375 523.375 566.261719 523.375 566.160156 523.375 C 566.226562 520.726562 566.019531 517.550781 566.234375 515.234375 C 646.765625 514.929688 727.289062 514.625 807.824219 514.324219 C 807.960938 514.308594 808.097656 514.292969 808.113281 514.523438 Z M 808.113281 514.523438 " fill-opacity="1" fill-rule="evenodd"/></g></g></g><g clip-path="url(#c141da23bc)"><g clip-path="url(#cb05e8b8a2)"><g clip-path="url(#2bd8b001ad)"><path fill="#ffffff" d="M 808.191406 535.175781 C 808.214844 541.265625 808.238281 547.355469 808.261719 553.445312 C 727.613281 553.75 646.9375 554.050781 566.277344 554.355469 C 566.253906 548.199219 566.230469 542.042969 566.207031 535.886719 C 646.769531 535.582031 727.339844 535.28125 807.902344 534.976562 C 808.039062 534.960938 808.175781 534.945312 808.191406 535.175781 Z M 808.191406 535.175781 " fill-opacity="1" fill-rule="evenodd"/></g></g></g><g clip-path="url(#88758d7af3)"><g clip-path="url(#0792d5025a)"><g clip-path="url(#3d014b472a)"><path fill="#ffffff" d="M 808.308594 565.957031 C 808.265625 568.605469 808.460938 571.777344 808.25 574.097656 C 727.691406 574.402344 647.097656 574.703125 566.554688 575.007812 C 566.164062 573.082031 566.332031 568.925781 566.425781 566.671875 C 646.960938 566.367188 727.484375 566.066406 808.019531 565.761719 C 808.152344 565.742188 808.292969 565.726562 808.308594 565.957031 Z M 808.308594 565.957031 " fill-opacity="1" fill-rule="evenodd"/></g></g></g><g clip-path="url(#6b09fbdfff)"><g clip-path="url(#74b2eaf573)"><g clip-path="url(#957ff8b861)"><path fill="#ffffff" d="M 808.382812 586.015625 C 808.40625 592.300781 808.429688 598.589844 808.453125 604.878906 C 727.804688 605.179688 647.128906 605.484375 566.472656 605.789062 C 566.445312 599.433594 566.421875 593.082031 566.398438 586.726562 C 646.960938 586.425781 727.53125 586.121094 808.09375 585.816406 C 808.230469 585.800781 808.367188 585.777344 808.382812 586.015625 Z M 808.382812 586.015625 " fill-opacity="1" fill-rule="evenodd"/></g></g></g><g clip-path="url(#e332d6cddb)"><g clip-path="url(#4d4db54ce2)"><g clip-path="url(#988396e025)"><path fill="#ffffff" d="M 808.5 616.792969 C 808.535156 626.324219 808.570312 635.855469 808.605469 645.386719 C 727.960938 645.691406 647.28125 645.996094 566.625 646.296875 C 566.585938 636.703125 566.550781 627.105469 566.515625 617.503906 C 647.078125 617.199219 727.644531 616.894531 808.210938 616.59375 C 808.34375 616.578125 808.480469 616.558594 808.5 616.792969 Z M 808.5 616.792969 " fill-opacity="1" fill-rule="evenodd"/></g></g></g><g clip-path="url(#59e5af850d)"><g clip-path="url(#bb0d2fd313)"><g clip-path="url(#8bee000722)"><path fill="#ffffff" d="M 808.730469 678.546875 C 808.757812 684.902344 808.78125 691.257812 808.804688 697.609375 C 728.15625 697.914062 647.480469 698.21875 566.820312 698.519531 C 566.796875 692.226562 566.773438 685.945312 566.75 679.65625 C 566.738281 679.425781 566.777344 679.300781 566.851562 679.257812 C 647.382812 678.953125 727.90625 678.652344 808.441406 678.347656 C 808.578125 678.328125 808.714844 678.316406 808.730469 678.546875 Z M 808.730469 678.546875 " fill-opacity="1" fill-rule="evenodd"/></g></g></g><g clip-path="url(#2e2e36e4a0)"><g clip-path="url(#7683fe2268)"><g clip-path="url(#ab7964dd92)"><path fill="#ffffff" d="M 808.925781 730.179688 C 808.964844 739.976562 809 749.777344 809.035156 759.566406 C 728.390625 759.871094 647.710938 760.175781 567.054688 760.480469 C 567.015625 750.617188 566.980469 740.757812 566.941406 730.890625 C 647.503906 730.589844 728.074219 730.285156 808.636719 729.984375 C 808.773438 729.960938 808.910156 729.949219 808.925781 730.179688 Z M 808.925781 730.179688 " fill-opacity="1" fill-rule="evenodd"/></g></g></g><g clip-path="url(#399bb0d419)"><g clip-path="url(#559ac43e6e)"><g clip-path="url(#2cef7d7dcc)"><path fill="#ffffff" d="M 809.082031 771.28125 C 809.039062 773.929688 809.234375 777.105469 809.019531 779.421875 C 728.464844 779.726562 647.871094 780.03125 567.328125 780.332031 C 566.9375 778.402344 567.105469 774.253906 567.199219 771.992188 C 647.734375 771.6875 728.253906 771.386719 808.792969 771.082031 C 808.925781 771.066406 809.0625 771.046875 809.082031 771.28125 Z M 809.082031 771.28125 " fill-opacity="1" fill-rule="evenodd"/></g></g></g><g clip-path="url(#0264e38695)"><g clip-path="url(#502a0a962c)"><g clip-path="url(#850f874976)"><path fill="#ffffff" d="M 809.160156 791.941406 C 809.179688 798.027344 809.203125 804.117188 809.226562 810.210938 C 728.578125 810.511719 647.902344 810.816406 567.242188 811.121094 C 567.21875 804.964844 567.195312 798.804688 567.175781 792.648438 C 647.734375 792.34375 728.304688 792.042969 808.867188 791.738281 C 809.003906 791.722656 809.140625 791.707031 809.160156 791.941406 Z M 809.160156 791.941406 " fill-opacity="1" fill-rule="evenodd"/></g></g></g></svg>