<svg width="545" height="76" viewBox="0 0 545 76" fill="none" xmlns="http://www.w3.org/2000/svg">
<path d="M201.866 75.5H37.75C16.9013 75.5 0 58.5987 0 37.75C0 16.9013 16.9012 0 37.75 0H201.2C212.382 0 222.615 6.28055 227.678 16.25L233.801 28.3071C235.108 30.8795 237.748 32.5 240.633 32.5C243.535 32.5 246.188 30.8608 247.486 28.2656L253.497 16.25C258.479 6.29061 268.659 0 279.795 0H507.25C528.099 0 545 16.9013 545 37.75C545 58.5987 528.099 75.5 507.25 75.5H279.128C268.367 75.5 258.495 69.5298 253.497 60L247.567 48.6936C246.215 46.1152 243.544 44.5 240.633 44.5C237.739 44.5 235.081 46.096 233.721 48.6504L227.678 60C222.599 69.5395 212.673 75.5 201.866 75.5Z" fill="#D9D9D9"/>
</svg>
