<svg width="610" height="610" viewBox="0 0 610 610" fill="none" xmlns="http://www.w3.org/2000/svg">
<path d="M424.092 42.1837C435.844 42.1837 451 35.7923 451 24.0403C451 12.2883 435.844 5.8461e-06 424.092 5.8461e-06V42.1837ZM610 262.442C610 250.691 600.473 241.163 588.721 241.163C576.969 241.163 567.442 250.691 567.442 262.442H610ZM354.143 582.188L369.524 556.205L332.898 534.526L317.518 560.512L354.143 582.188ZM240.476 556.205L255.857 582.188L292.479 560.512L277.099 534.526L240.476 556.205ZM317.518 560.512C312.05 569.75 297.95 569.75 292.479 560.512L255.857 582.188C277.805 619.271 332.195 619.271 354.143 582.188L317.518 560.512ZM262.442 42.5582L424.092 42.1837V5.8461e-06H262.442V42.5582ZM567.442 262.442V290.815H610V262.442H567.442ZM42.5581 290.815V262.442H-2.47955e-05V290.815H42.5581ZM-2.47955e-05 290.815C-2.47955e-05 323.573 -0.0116583 349.207 1.399 369.882C2.823 390.75 5.76604 408.116 12.4182 424.175L51.7368 407.89C47.5905 397.88 45.1346 385.685 43.8587 366.985C42.5697 348.095 42.5581 324.155 42.5581 290.815H-2.47955e-05ZM185.908 482.088C150.289 481.473 131.625 479.209 116.995 473.148L100.709 512.466C123.547 521.926 149.56 524.025 185.175 524.638L185.908 482.088ZM12.4182 424.175C28.9758 464.149 60.735 495.908 100.709 512.466L116.995 473.148C87.449 460.909 63.9751 437.436 51.7368 407.89L12.4182 424.175ZM567.442 290.815C567.442 324.155 567.43 348.095 566.142 366.985C564.866 385.685 562.409 397.88 558.263 407.89L597.581 424.175C604.235 408.116 607.177 390.75 608.601 369.882C610.011 349.207 610 323.573 610 290.815H567.442ZM424.824 524.638C460.439 524.025 486.454 521.926 509.29 512.466L493.005 473.148C478.376 479.209 459.71 481.473 424.092 482.088L424.824 524.638ZM558.263 407.89C546.024 437.436 522.552 460.909 493.005 473.148L509.29 512.466C549.264 495.908 581.024 464.149 597.581 424.175L558.263 407.89ZM262.442 5.8461e-06C216.417 5.8461e-06 180.404 -0.0224092 151.68 2.70869C122.64 5.46987 98.8611 11.1948 77.8992 24.0403L100.136 60.3272C113.287 52.268 129.784 47.5407 155.709 45.0757C181.95 42.5807 215.593 42.5582 262.442 42.5582V5.8461e-06ZM42.5581 262.442C42.5581 215.593 42.5805 181.951 45.0756 155.709C47.5405 129.784 52.2679 113.287 60.327 100.136L24.0402 77.8995C11.1948 98.8614 5.46983 122.64 2.70866 151.681C-0.0224402 180.404 -2.47955e-05 216.417 -2.47955e-05 262.442H42.5581ZM77.8992 24.0403C55.948 37.4921 37.492 55.9482 24.0402 77.8995L60.327 100.136C70.2697 83.9112 83.911 70.2699 100.136 60.3272L77.8992 24.0403ZM277.099 534.526C271.339 524.794 266.283 516.206 261.367 509.459C256.186 502.355 250.247 495.957 242.01 491.165L220.613 527.955C221.959 528.735 223.791 530.162 226.972 534.526C230.416 539.253 234.307 545.781 240.476 556.205L277.099 534.526ZM185.175 524.638C197.633 524.854 205.524 525.013 211.539 525.677C217.16 526.301 219.338 527.211 220.613 527.955L242.01 491.165C233.704 486.333 225.06 484.355 216.223 483.376C207.78 482.443 197.576 482.29 185.908 482.088L185.175 524.638ZM369.524 556.205C375.692 545.781 379.582 539.253 383.026 534.526C386.207 530.162 388.039 528.735 389.384 527.955L367.989 491.165C359.752 495.957 353.811 502.355 348.633 509.459C343.717 516.206 338.661 524.794 332.898 534.526L369.524 556.205ZM424.092 482.088C412.422 482.29 402.22 482.443 393.776 483.376C384.938 484.355 376.296 486.333 367.989 491.165L389.384 527.955C390.661 527.211 392.84 526.301 398.46 525.677C404.475 525.013 412.366 524.854 424.824 524.638L424.092 482.088Z" fill="#151514"/>
<path d="M524.582 176C557.719 176 584.582 149.137 584.582 116C584.582 82.8629 557.719 56 524.582 56C491.445 56 464.582 82.8629 464.582 116C464.582 149.137 491.445 176 524.582 176Z" fill="#F15F0F" stroke="#F15F0F" stroke-width="50"/>
</svg>
