<svg width="1935" height="1935" viewBox="0 0 1935 1935" fill="none" xmlns="http://www.w3.org/2000/svg">
<mask id="path-1-inside-1_111_82" fill="white">
<path fill-rule="evenodd" clip-rule="evenodd" d="M868.911 273.096C711.34 112.498 453.414 110.045 292.817 267.617C132.219 425.188 129.766 683.114 287.338 843.711L393.027 951.431L282.632 1059.75C122.035 1217.32 119.582 1475.24 277.153 1635.84C434.724 1796.44 692.65 1798.89 853.248 1641.32L963.643 1533L1071.93 1643.38C1229.51 1803.97 1487.43 1806.43 1648.03 1648.85C1808.63 1491.28 1811.08 1233.36 1653.51 1072.76L1545.22 962.388L1652.91 856.722C1813.51 699.151 1815.96 441.225 1658.39 280.628C1500.82 120.031 1242.89 117.577 1082.3 275.149L974.601 380.815L868.911 273.096Z"/>
</mask>
<path d="M292.817 267.617L303.322 278.324L292.817 267.617ZM868.911 273.096L879.618 262.59L879.618 262.59L868.911 273.096ZM287.338 843.711L298.045 833.206L298.045 833.206L287.338 843.711ZM393.027 951.431L403.532 962.138L414.239 951.632L403.734 940.925L393.027 951.431ZM282.632 1059.75L272.127 1049.04L272.127 1049.04L282.632 1059.75ZM277.153 1635.84L287.86 1625.34L287.86 1625.34L277.153 1635.84ZM853.248 1641.32L842.742 1630.61L842.742 1630.61L853.248 1641.32ZM963.643 1533L974.35 1522.5L963.845 1511.79L953.138 1522.3L963.643 1533ZM1071.93 1643.38L1061.23 1653.88L1061.23 1653.88L1071.93 1643.38ZM1648.03 1648.85L1637.52 1638.15L1637.52 1638.15L1648.03 1648.85ZM1653.51 1072.76L1664.22 1062.25L1664.22 1062.25L1653.51 1072.76ZM1545.22 962.388L1534.71 951.681L1524 962.187L1534.51 972.894L1545.22 962.388ZM1652.91 856.722L1663.42 867.429L1663.42 867.429L1652.91 856.722ZM1658.39 280.628L1647.68 291.133L1647.68 291.133L1658.39 280.628ZM1082.3 275.149L1092.8 285.856L1082.3 275.149ZM974.601 380.815L963.894 391.32L974.399 402.027L985.106 391.522L974.601 380.815ZM303.322 278.324C458.006 126.554 706.435 128.917 858.204 283.601L879.618 262.59C716.245 96.0798 448.822 93.5366 282.311 256.91L303.322 278.324ZM298.045 833.206C146.275 678.522 148.638 430.093 303.322 278.324L282.311 256.91C115.801 420.283 113.257 687.706 276.631 854.217L298.045 833.206ZM403.734 940.925L298.045 833.206L276.631 854.217L382.32 961.936L403.734 940.925ZM293.137 1070.45L403.532 962.138L382.522 940.724L272.127 1049.04L293.137 1070.45ZM287.86 1625.34C136.091 1470.65 138.453 1222.22 293.137 1070.45L272.127 1049.04C105.616 1212.41 103.073 1479.84 266.446 1646.35L287.86 1625.34ZM842.742 1630.61C688.059 1782.38 439.629 1780.02 287.86 1625.34L266.446 1646.35C429.819 1812.86 697.242 1815.4 863.753 1652.03L842.742 1630.61ZM953.138 1522.3L842.742 1630.61L863.753 1652.03L974.148 1543.71L953.138 1522.3ZM1082.64 1632.87L974.35 1522.5L952.936 1543.51L1061.23 1653.88L1082.64 1632.87ZM1637.52 1638.15C1482.84 1789.92 1234.41 1787.55 1082.64 1632.87L1061.23 1653.88C1224.6 1820.39 1492.02 1822.93 1658.53 1659.56L1637.52 1638.15ZM1642.8 1083.26C1794.57 1237.95 1792.21 1486.38 1637.52 1638.15L1658.53 1659.56C1825.05 1496.19 1827.59 1228.76 1664.22 1062.25L1642.8 1083.26ZM1534.51 972.894L1642.8 1083.26L1664.22 1062.25L1555.92 951.883L1534.51 972.894ZM1642.41 846.015L1534.71 951.681L1555.72 973.095L1663.42 867.429L1642.41 846.015ZM1647.68 291.133C1799.45 445.817 1797.09 694.246 1642.41 846.015L1663.42 867.429C1829.93 704.056 1832.47 436.633 1669.1 270.122L1647.68 291.133ZM1092.8 285.856C1247.49 134.086 1495.91 136.449 1647.68 291.133L1669.1 270.122C1505.72 103.612 1238.3 101.069 1071.79 264.442L1092.8 285.856ZM985.106 391.522L1092.8 285.856L1071.79 264.442L964.096 370.108L985.106 391.522ZM858.204 283.601L963.894 391.32L985.308 370.309L879.618 262.59L858.204 283.601Z" fill="#E9F3FC" mask="url(#path-1-inside-1_111_82)"/>
<mask id="path-3-inside-2_111_82" fill="white">
<path fill-rule="evenodd" clip-rule="evenodd" d="M1382.06 411.253C1384.2 186.274 1203.55 2.15845 978.575 0.0188123C753.596 -2.12083 569.479 178.526 567.34 403.505L565.905 554.408L411.254 552.937C186.275 550.798 2.15848 731.445 0.0188316 956.424C-2.12082 1181.4 178.526 1365.52 403.505 1367.66L558.156 1369.13L556.686 1523.75C554.546 1748.73 735.193 1932.84 960.172 1934.98C1185.15 1937.12 1369.27 1756.47 1371.41 1531.5L1372.88 1376.88L1523.75 1378.31C1748.73 1380.45 1932.84 1199.81 1934.98 974.826C1937.12 749.847 1756.47 565.731 1531.5 563.591L1380.63 562.157L1382.06 411.253Z"/>
</mask>
<path d="M978.575 0.0188123L978.717 -14.9805L978.575 0.0188123ZM1382.06 411.253L1397.06 411.396L1397.06 411.396L1382.06 411.253ZM567.34 403.505L582.339 403.648L582.339 403.648L567.34 403.505ZM565.905 554.408L565.762 569.408L580.761 569.55L580.904 554.551L565.905 554.408ZM411.254 552.937L411.396 537.938L411.396 537.938L411.254 552.937ZM0.0188316 956.424L15.0182 956.566L0.0188316 956.424ZM403.505 1367.66L403.648 1352.66L403.648 1352.66L403.505 1367.66ZM558.156 1369.13L573.156 1369.27L573.298 1354.27L558.299 1354.13L558.156 1369.13ZM556.686 1523.75L571.685 1523.89L571.685 1523.89L556.686 1523.75ZM960.172 1934.98L960.315 1919.98L960.172 1934.98ZM1371.41 1531.5L1386.41 1531.64L1386.41 1531.64L1371.41 1531.5ZM1372.88 1376.88L1373.02 1361.88L1358.02 1361.74L1357.88 1376.74L1372.88 1376.88ZM1523.75 1378.31L1523.89 1363.31L1523.89 1363.31L1523.75 1378.31ZM1934.98 974.826L1949.98 974.969L1934.98 974.826ZM1531.5 563.591L1531.64 548.592L1531.64 548.592L1531.5 563.591ZM1380.63 562.157L1365.63 562.014L1365.48 577.013L1380.48 577.156L1380.63 562.157ZM978.432 15.0181C1195.13 17.079 1369.12 194.416 1367.06 411.111L1397.06 411.396C1399.28 178.133 1211.98 -12.7621 978.717 -14.9805L978.432 15.0181ZM582.339 403.648C584.4 186.953 761.737 12.9573 978.432 15.0181L978.717 -14.9805C745.454 -17.1989 554.559 170.1 552.341 403.362L582.339 403.648ZM580.904 554.551L582.339 403.648L552.341 403.362L550.905 554.266L580.904 554.551ZM411.111 567.937L565.762 569.408L566.047 539.409L411.396 537.938L411.111 567.937ZM15.0182 956.566C17.079 739.871 194.416 565.876 411.111 567.937L411.396 537.938C178.133 535.72 -12.7621 723.018 -14.9805 956.281L15.0182 956.566ZM403.648 1352.66C186.953 1350.6 12.9573 1173.26 15.0182 956.566L-14.9805 956.281C-17.1989 1189.54 170.099 1380.44 403.362 1382.66L403.648 1352.66ZM558.299 1354.13L403.648 1352.66L403.362 1382.66L558.014 1384.13L558.299 1354.13ZM571.685 1523.89L573.156 1369.27L543.157 1368.99L541.687 1523.6L571.685 1523.89ZM960.315 1919.98C743.62 1917.92 569.624 1740.58 571.685 1523.89L541.687 1523.6C539.468 1756.87 726.767 1947.76 960.03 1949.98L960.315 1919.98ZM1356.41 1531.35C1354.35 1748.05 1177.01 1922.04 960.315 1919.98L960.03 1949.98C1193.29 1952.2 1384.19 1764.9 1386.41 1531.64L1356.41 1531.35ZM1357.88 1376.74L1356.41 1531.35L1386.41 1531.64L1387.88 1377.02L1357.88 1376.74ZM1523.89 1363.31L1373.02 1361.88L1372.73 1391.88L1523.6 1393.31L1523.89 1363.31ZM1919.98 974.683C1917.92 1191.38 1740.58 1365.37 1523.89 1363.31L1523.6 1393.31C1756.87 1395.53 1947.76 1208.23 1949.98 974.969L1919.98 974.683ZM1531.35 578.591C1748.05 580.652 1922.04 757.988 1919.98 974.683L1949.98 974.969C1952.2 741.706 1764.9 550.81 1531.64 548.592L1531.35 578.591ZM1380.48 577.156L1531.35 578.591L1531.64 548.592L1380.77 547.157L1380.48 577.156ZM1367.06 411.111L1365.63 562.014L1395.63 562.299L1397.06 411.396L1367.06 411.111Z" fill="#E9F3FC" mask="url(#path-3-inside-2_111_82)"/>
</svg>
