<svg width="2190" height="2190" viewBox="0 0 2190 2190" fill="none" xmlns="http://www.w3.org/2000/svg">
<mask id="path-1-inside-1_111_81" fill="white">
<path fill-rule="evenodd" clip-rule="evenodd" d="M994.911 410.096C837.34 249.498 579.414 247.045 418.816 404.617C258.219 562.188 255.766 820.114 413.337 980.711L519.027 1088.43L408.632 1196.75C248.035 1354.32 245.582 1612.24 403.153 1772.84C560.724 1933.44 818.65 1935.89 979.248 1778.32L1089.64 1670L1197.93 1780.38C1355.51 1940.97 1613.43 1943.43 1774.03 1785.85C1934.63 1628.28 1937.08 1370.36 1779.51 1209.76L1671.22 1099.39L1778.91 993.722C1939.51 836.151 1941.96 578.225 1784.39 417.628C1626.82 257.031 1368.89 254.577 1208.3 412.149L1100.6 517.815L994.911 410.096Z"/>
</mask>
<path d="M418.816 404.617L429.322 415.324L418.816 404.617ZM994.911 410.096L1005.62 399.59L1005.62 399.59L994.911 410.096ZM413.337 980.711L424.044 970.206L424.044 970.206L413.337 980.711ZM519.027 1088.43L529.532 1099.14L540.239 1088.63L529.734 1077.93L519.027 1088.43ZM408.632 1196.75L398.126 1186.04L398.126 1186.04L408.632 1196.75ZM403.153 1772.84L413.86 1762.34L413.86 1762.34L403.153 1772.84ZM979.248 1778.32L968.742 1767.61L968.742 1767.61L979.248 1778.32ZM1089.64 1670L1100.35 1659.5L1089.84 1648.79L1079.14 1659.3L1089.64 1670ZM1197.93 1780.38L1187.23 1790.88L1187.23 1790.88L1197.93 1780.38ZM1774.03 1785.85L1763.52 1775.15L1763.52 1775.15L1774.03 1785.85ZM1779.51 1209.76L1790.22 1199.25L1790.22 1199.25L1779.51 1209.76ZM1671.22 1099.39L1660.71 1088.68L1650 1099.19L1660.51 1109.89L1671.22 1099.39ZM1778.91 993.722L1789.42 1004.43L1789.42 1004.43L1778.91 993.722ZM1784.39 417.628L1773.68 428.133L1773.68 428.133L1784.39 417.628ZM1208.3 412.149L1218.8 422.856L1208.3 412.149ZM1100.6 517.815L1089.89 528.32L1100.4 539.027L1111.11 528.522L1100.6 517.815ZM429.322 415.324C584.005 263.554 832.435 265.917 984.204 420.601L1005.62 399.59C842.245 233.08 574.822 230.537 408.311 393.91L429.322 415.324ZM424.044 970.206C272.275 815.522 274.638 567.093 429.322 415.324L408.311 393.91C241.801 557.283 239.257 824.706 402.63 991.217L424.044 970.206ZM529.734 1077.93L424.044 970.206L402.63 991.217L508.32 1098.94L529.734 1077.93ZM419.137 1207.45L529.532 1099.14L508.522 1077.72L398.126 1186.04L419.137 1207.45ZM413.86 1762.34C262.09 1607.65 264.453 1359.22 419.137 1207.45L398.126 1186.04C231.616 1349.41 229.073 1616.84 392.446 1783.35L413.86 1762.34ZM968.742 1767.61C814.058 1919.38 565.629 1917.02 413.86 1762.34L392.446 1783.35C555.819 1949.86 823.242 1952.4 989.753 1789.03L968.742 1767.61ZM1079.14 1659.3L968.742 1767.61L989.753 1789.03L1100.15 1680.71L1079.14 1659.3ZM1208.64 1769.87L1100.35 1659.5L1078.94 1680.51L1187.23 1790.88L1208.64 1769.87ZM1763.52 1775.15C1608.84 1926.92 1360.41 1924.55 1208.64 1769.87L1187.23 1790.88C1350.6 1957.39 1618.02 1959.93 1784.53 1796.56L1763.52 1775.15ZM1768.8 1220.26C1920.57 1374.95 1918.21 1623.38 1763.52 1775.15L1784.53 1796.56C1951.04 1633.19 1953.59 1365.76 1790.22 1199.25L1768.8 1220.26ZM1660.51 1109.89L1768.8 1220.26L1790.22 1199.25L1681.92 1088.88L1660.51 1109.89ZM1768.41 983.015L1660.71 1088.68L1681.72 1110.1L1789.42 1004.43L1768.41 983.015ZM1773.68 428.133C1925.45 582.817 1923.09 831.246 1768.41 983.015L1789.42 1004.43C1955.93 841.056 1958.47 573.633 1795.1 407.122L1773.68 428.133ZM1218.8 422.856C1373.48 271.086 1621.91 273.449 1773.68 428.133L1795.1 407.122C1631.72 240.612 1364.3 238.069 1197.79 401.442L1218.8 422.856ZM1111.11 528.522L1218.8 422.856L1197.79 401.442L1090.1 507.108L1111.11 528.522ZM984.204 420.601L1089.89 528.32L1111.31 507.309L1005.62 399.59L984.204 420.601Z" fill="#E9F3FC" mask="url(#path-1-inside-1_111_81)"/>
<mask id="path-3-inside-2_111_81" fill="white">
<path fill-rule="evenodd" clip-rule="evenodd" d="M1644.15 1014.85C1772.7 888.809 1774.73 682.425 1648.69 553.878C1522.65 425.331 1316.26 423.299 1187.71 549.341L1101.49 633.882L1014.85 545.518C888.81 416.971 682.426 414.94 553.879 540.981C425.332 667.022 423.301 873.407 549.342 1001.95L635.983 1090.32L547.639 1176.94C419.092 1302.98 417.06 1509.36 543.101 1637.91C669.143 1766.46 875.527 1768.49 1004.07 1642.45L1092.42 1555.83L1176.94 1642.03C1302.98 1770.58 1509.37 1772.61 1637.91 1646.57C1766.46 1520.52 1768.49 1314.14 1642.45 1185.59L1557.93 1099.39L1644.15 1014.85Z"/>
</mask>
<path d="M1648.69 553.878L1637.98 564.38L1648.69 553.878ZM1644.15 1014.85L1633.65 1004.14L1633.65 1004.14L1644.15 1014.85ZM1187.71 549.341L1177.21 538.63L1177.21 538.63L1187.71 549.341ZM1101.49 633.882L1090.78 644.384L1101.28 655.094L1111.99 644.592L1101.49 633.882ZM1014.85 545.518L1004.14 556.02L1004.14 556.02L1014.85 545.518ZM553.879 540.981L564.38 551.691L553.879 540.981ZM549.342 1001.95L538.631 1012.46L538.631 1012.46L549.342 1001.95ZM635.983 1090.32L646.485 1101.03L657.195 1090.53L646.693 1079.82L635.983 1090.32ZM547.639 1176.94L537.137 1166.23L537.137 1166.23L547.639 1176.94ZM543.101 1637.91L553.812 1627.41L553.812 1627.41L543.101 1637.91ZM1004.07 1642.45L1014.58 1653.16L1014.58 1653.16L1004.07 1642.45ZM1092.42 1555.83L1103.13 1545.33L1092.63 1534.61L1081.92 1545.12L1092.42 1555.83ZM1176.94 1642.03L1166.23 1652.53L1176.94 1642.03ZM1637.91 1646.57L1627.41 1635.86L1627.41 1635.86L1637.91 1646.57ZM1642.45 1185.59L1653.16 1175.09L1653.16 1175.09L1642.45 1185.59ZM1557.93 1099.39L1547.43 1088.68L1536.72 1099.18L1547.22 1109.89L1557.93 1099.39ZM1637.98 564.38C1758.22 687.011 1756.28 883.899 1633.65 1004.14L1654.65 1025.56C1789.11 893.72 1791.24 677.838 1659.4 543.376L1637.98 564.38ZM1198.22 560.051C1320.85 439.81 1517.73 441.748 1637.98 564.38L1659.4 543.376C1527.56 408.914 1311.67 406.789 1177.21 538.63L1198.22 560.051ZM1111.99 644.592L1198.22 560.051L1177.21 538.63L1090.99 623.171L1111.99 644.592ZM1004.14 556.02L1090.78 644.384L1112.2 623.38L1025.56 535.016L1004.14 556.02ZM564.38 551.691C687.012 431.45 883.899 433.388 1004.14 556.02L1025.56 535.016C893.721 400.554 677.839 398.429 543.377 530.27L564.38 551.691ZM560.052 991.452C439.811 868.82 441.749 671.933 564.38 551.691L543.377 530.27C408.915 662.112 406.79 877.993 538.631 1012.46L560.052 991.452ZM646.693 1079.82L560.052 991.452L538.631 1012.46L625.272 1100.82L646.693 1079.82ZM558.14 1187.65L646.485 1101.03L625.481 1079.61L537.137 1166.23L558.14 1187.65ZM553.812 1627.41C433.571 1504.78 435.509 1307.89 558.14 1187.65L537.137 1166.23C402.675 1298.07 400.55 1513.95 532.391 1648.41L553.812 1627.41ZM993.572 1631.74C870.94 1751.98 674.053 1750.04 553.812 1627.41L532.391 1648.41C664.232 1782.88 880.113 1785 1014.58 1653.16L993.572 1631.74ZM1081.92 1545.12L993.572 1631.74L1014.58 1653.16L1102.92 1566.54L1081.92 1545.12ZM1187.65 1631.53L1103.13 1545.33L1081.71 1566.33L1166.23 1652.53L1187.65 1631.53ZM1627.41 1635.86C1504.78 1756.1 1307.89 1754.16 1187.65 1631.53L1166.23 1652.53C1298.07 1786.99 1513.95 1789.12 1648.41 1657.28L1627.41 1635.86ZM1631.74 1196.09C1751.98 1318.73 1750.04 1515.61 1627.41 1635.86L1648.41 1657.28C1782.88 1525.44 1785 1309.55 1653.16 1175.09L1631.74 1196.09ZM1547.22 1109.89L1631.74 1196.09L1653.16 1175.09L1568.64 1088.89L1547.22 1109.89ZM1633.65 1004.14L1547.43 1088.68L1568.43 1110.1L1654.65 1025.56L1633.65 1004.14Z" fill="#E9F3FC" mask="url(#path-3-inside-2_111_81)"/>
</svg>
