<svg width="1262" height="638" viewBox="0 0 1262 638" fill="none" xmlns="http://www.w3.org/2000/svg">
<path opacity="0.5" d="M195 239.55C182.467 230.555 170.418 223.447 158.89 217.928C59.0287 170.125 0 300.624 0 411.337H632H868.5C644 -315.163 458 130.575 419.5 185.063C381 239.55 314.5 325.32 195 239.55Z" fill="url(#paint0_linear_129_50)"/>
<path opacity="0.5" d="M967.5 569.142C862 723.642 750 569.142 750 569.142V467H1261.5V569.142C1261.5 569.142 1170.5 651.587 1105.75 569.142C1041 486.697 967.5 569.142 967.5 569.142Z" fill="url(#paint1_linear_129_50)"/>
<defs>
<linearGradient id="paint0_linear_129_50" x1="434.25" y1="0" x2="434.25" y2="411.337" gradientUnits="userSpaceOnUse">
<stop offset="0.055" stop-color="#BF193E" stop-opacity="0.9"/>
<stop offset="0.095" stop-color="#BF193E" stop-opacity="0.85"/>
<stop offset="1" stop-color="#BF193E" stop-opacity="0"/>
</linearGradient>
<linearGradient id="paint1_linear_129_50" x1="1005.75" y1="467" x2="1005.75" y2="637.809" gradientUnits="userSpaceOnUse">
<stop stop-color="#BF193E" stop-opacity="0"/>
<stop offset="0.975" stop-color="#BF193E" stop-opacity="0.84"/>
<stop offset="1" stop-color="#BF193E"/>
</linearGradient>
</defs>
</svg>
