<svg width="1263" height="531" viewBox="0 0 1263 531" fill="none" xmlns="http://www.w3.org/2000/svg">
<path d="M4.5 344.997C4.5 344.997 38.1734 276.233 135.971 276.233C233.768 276.233 247.191 377.454 351.7 344.997C409.737 326.973 451.067 272.407 476.348 227.443C499.976 185.421 519.362 140.884 544.734 99.8913V99.8913C559.67 75.7606 575.692 51.8506 598.504 34.9698C658.876 -9.70424 794.116 -57.8038 893.531 292.348C895.345 298.736 897.095 305.406 898.879 311.803C905.127 334.21 922.494 392.139 947.989 442.809C981.535 509.481 1019.86 525.717 1079.88 481.347V481.347C1101.27 465.531 1122.95 460.513 1142.23 460.763C1188.53 461.365 1224.98 496.815 1259.5 527.68V527.68" stroke="#BF193E" stroke-width="8"/>
</svg>
