<svg width="475" height="500" viewBox="0 0 475 500" fill="none" xmlns="http://www.w3.org/2000/svg">
<path d="M376 197.333C430.49 197.333 474.667 153.159 474.667 98.6667C474.667 44.1743 430.49 0 376 0C321.507 0 277.333 44.1743 277.333 98.6667C277.333 153.159 321.507 197.333 376 197.333Z" fill="#0B0105"/>
<path d="M98.6667 197.333C153.159 197.333 197.333 153.159 197.333 98.6667C197.333 44.1743 153.159 0 98.6667 0C44.1747 0 0 44.1743 0 98.6667C0 153.159 44.1747 197.333 98.6667 197.333Z" fill="#BF193E"/>
<path d="M376 499.667C430.49 499.667 474.667 455.493 474.667 401C474.667 346.51 430.49 302.333 376 302.333C321.507 302.333 277.333 346.51 277.333 401C277.333 455.493 321.507 499.667 376 499.667Z" fill="#0B0105"/>
<path d="M98.6667 499.667C153.159 499.667 197.333 455.493 197.333 401C197.333 346.51 153.159 302.333 98.6667 302.333C44.1747 302.333 0 346.51 0 401C0 455.493 44.1747 499.667 98.6667 499.667Z" fill="#0B0105"/>
</svg>
