<svg width="599" height="701" viewBox="0 0 599 701" fill="none" xmlns="http://www.w3.org/2000/svg">
<path d="M395.187 598.67C395.187 608.78 392.6 618.793 387.577 628.137C382.55 637.48 375.187 645.97 365.9 653.12C356.617 660.27 345.593 665.943 333.463 669.813C321.333 673.68 308.33 675.673 295.2 675.673C282.07 675.673 269.07 673.68 256.937 669.813C244.807 665.943 233.785 660.27 224.5 653.12C215.216 645.97 207.851 637.48 202.826 628.137C197.801 618.793 195.215 608.78 195.215 598.67" stroke="black" stroke-width="50" stroke-linecap="round"/>
<path d="M530.39 309.707C533.717 337.513 541.41 364.69 553.247 390.217L562.07 409.24C595.72 481.803 551.897 566.62 473.243 581.157L467.903 582.143C353.737 603.247 236.667 603.247 122.499 582.143C43.2021 567.487 1.2504 479.757 39.6224 408.833L47.1694 394.883C67.7754 356.797 78.5657 314.177 78.5657 270.871V226.828C78.5657 152.702 120.52 84.9618 186.884 51.9368C244.59 23.2201 310.65 17.8805 371.557 36.1131" stroke="black" stroke-width="50" stroke-linecap="round"/>
<path d="M499.33 230.57C545.354 230.57 582.663 193.261 582.663 147.237C582.663 101.213 545.354 63.9038 499.33 63.9038C453.306 63.9038 415.997 101.213 415.997 147.237C415.997 193.261 453.306 230.57 499.33 230.57Z" fill="#BF193E"/>
</svg>
