<svg width="443" height="411" viewBox="0 0 443 411" fill="none" xmlns="http://www.w3.org/2000/svg">
<path d="M333.343 1H41C18.9086 1 1 18.9086 1 41V112.805C1 128.839 13.9985 141.838 30.0329 141.838C46.0674 141.838 59.0658 154.836 59.0658 170.871V176.443C59.0658 192.477 46.0674 205.476 30.0329 205.476C13.9985 205.476 1 218.474 1 234.509V261.989C1 278.023 13.9985 291.022 30.0329 291.022C46.0674 291.022 59.0658 304.02 59.0658 320.055L59.0658 370.5C59.0658 392.591 76.9745 410.5 99.0659 410.5H232H368.462C390.553 410.5 408.462 392.591 408.462 370.5V351.886C408.462 329.795 390.553 311.886 368.462 311.886H170.386C160.879 311.886 153.173 304.18 153.173 294.673C153.173 285.166 160.879 277.459 170.386 277.459H402C424.091 277.459 442 259.551 442 237.459V157.926C442 147.602 438.009 137.679 430.861 130.23L409.089 107.543C401.941 100.094 397.95 90.1706 397.95 79.8471V66.6421C397.95 56.3186 393.959 46.3948 386.811 38.9463L362.204 13.3042C354.66 5.44366 344.237 1 333.343 1Z" fill="black" stroke="black"/>
<path d="M180 93H186.304C200.111 93 211.304 104.193 211.304 118V152M211.304 152L201.109 141.804M211.304 152L221.5 141.804" stroke="#59B5D1" stroke-width="3"/>
<path d="M361.454 176H368C379.046 176 388 184.954 388 196V223.849C388 234.895 379.046 243.849 368 243.849H264M264 243.849L272.349 235.5M264 243.849L272.349 252.198" stroke="#59B5D1" stroke-width="3"/>
<path d="M88 297V330.944C88 347.513 101.431 360.944 118 360.944H165M165 360.944L158.99 352.888M165 360.944L158.99 369" stroke="#59B5D1" stroke-width="3"/>
</svg>
