<svg xmlns="http://www.w3.org/2000/svg" xmlns:xlink="http://www.w3.org/1999/xlink" width="1080" zoomAndPan="magnify" viewBox="0 0 810 809.999993" height="1080" preserveAspectRatio="xMidYMid meet" version="1.0"><defs><clipPath id="7e1de29c4f"><path d="M 138.78125 0 L 405 0 L 405 269.792969 L 138.78125 269.792969 Z M 138.78125 0 " clip-rule="nonzero"/></clipPath><clipPath id="1ca3a61637"><path d="M 405 270.417969 L 671.21875 270.417969 L 671.21875 540 L 405 540 Z M 405 270.417969 " clip-rule="nonzero"/></clipPath><clipPath id="36585db97c"><path d="M 138.78125 540.957031 L 405 540.957031 L 405 810 L 138.78125 810 Z M 138.78125 540.957031 " clip-rule="nonzero"/></clipPath></defs><g clip-path="url(#7e1de29c4f)"><path fill="#000000" d="M 138.78125 0 L 405 0 L 405 269.339844 L 138.78125 269.339844 Z M 138.78125 0 " fill-opacity="1" fill-rule="nonzero"/></g><g clip-path="url(#1ca3a61637)"><path fill="#000000" d="M 405 270.417969 L 671.21875 270.417969 L 671.21875 539.753906 L 405 539.753906 Z M 405 270.417969 " fill-opacity="1" fill-rule="nonzero"/></g><g clip-path="url(#36585db97c)"><path fill="#000000" d="M 138.78125 540.957031 L 405 540.957031 L 405 810.296875 L 138.78125 810.296875 Z M 138.78125 540.957031 " fill-opacity="1" fill-rule="nonzero"/></g></svg>