<svg width="121" height="417" viewBox="0 0 121 417" fill="none" xmlns="http://www.w3.org/2000/svg">
<path d="M68.6594 0H10.9999C5.47706 0 0.999901 4.47716 0.999901 10V332.821C0.999901 334.564 0.148231 360.802 0.66298 368.779C0.759822 370.28 1.59812 371.477 2.77428 372.414L51.4777 411.215C52.6539 412.152 53.6254 413.323 54.7298 414.344C56.5576 416.033 58.9742 417 61.5173 417H111C116.523 417 121 412.523 121 407V91.5482C121 89.9442 120.614 88.3637 119.875 86.9402L77.5344 5.392C75.8144 2.07908 72.3923 0 68.6594 0Z" fill="#D9D9D9"/>
</svg>
